<svg width="81" height="25" viewBox="0 0 81 25" fill="none" xmlns="http://www.w3.org/2000/svg">
<g clip-path="url(#clip0_73_33)">
<g clip-path="url(#clip1_73_33)">
<path d="M50.1582 19.0692C45.5299 22.4802 38.8219 24.3004 33.0469 24.3004C24.9484 24.3004 17.6584 21.3049 12.1429 16.3234C11.7094 15.9319 12.0979 15.3979 12.6177 15.7032C18.5697 19.1667 25.9302 21.2502 33.5322 21.2502C38.6592 21.2502 44.2999 20.1897 49.4862 17.9877C50.2699 17.6547 50.9239 18.5007 50.1582 19.0692Z" fill="#F19E38"/>
<path d="M52.0819 16.8671C51.4924 16.1111 48.1714 16.5101 46.6804 16.6871C46.2266 16.7426 46.1569 16.3474 46.5656 16.0631C49.2109 14.2016 53.5511 14.7386 54.0574 15.3626C54.5636 15.9904 53.9254 20.3411 51.4399 22.4171C51.0589 22.7359 50.6944 22.5664 50.8646 22.1434C51.4226 20.7499 52.6744 17.6261 52.0819 16.8671Z" fill="#F19E38"/>
<path d="M46.7845 2.92128C46.7845 3.19203 46.9922 3.37578 47.2525 3.37578H51.4855L46.6217 10.3508C46.327 10.7978 46.324 11.301 46.324 11.595V13.4288C46.324 13.692 46.6187 13.9973 46.8992 13.845C49.6555 12.3818 52.966 12.5243 55.4582 13.8315C55.7635 13.9913 56.0545 13.6823 56.0545 13.419V11.4878C56.0305 11.2275 55.9435 10.9643 55.6247 10.7843C54.2102 9.98703 52.564 9.75453 51.004 9.79278L55.2025 3.79878C55.591 3.26178 55.8092 2.92203 55.813 2.66178V1.11228C55.813 0.841531 55.6052 0.654781 55.345 0.654781H47.2435C47.183 0.653236 47.1228 0.664013 47.0666 0.686457C47.0104 0.708902 46.9593 0.742545 46.9165 0.785339C46.8737 0.828134 46.8401 0.879186 46.8177 0.935392C46.7952 0.991597 46.7844 1.05178 46.786 1.11228V2.92203L46.7845 2.92128ZM17.2307 14.2125C17.292 14.2138 17.3529 14.203 17.4099 14.1807C17.467 14.1584 17.5191 14.125 17.5632 14.0825C17.6073 14.04 17.6426 13.9891 17.667 13.9329C17.6914 13.8768 17.7045 13.8163 17.7055 13.755V7.05003C17.7055 5.58678 17.6365 3.56253 19.408 3.56253C21.1585 3.56253 20.9267 5.63928 20.9267 7.05003L20.9305 13.755C20.9305 13.9973 21.1247 14.1953 21.3745 14.2125H23.836C23.8972 14.2138 23.9581 14.203 24.0152 14.1807C24.0723 14.1584 24.1243 14.125 24.1685 14.0825C24.2126 14.04 24.2478 13.9891 24.2723 13.9329C24.2967 13.8768 24.3098 13.8163 24.3107 13.755V7.05003C24.3107 6.33228 24.2867 5.26503 24.5395 4.62678C24.7922 3.98853 25.4162 3.59028 26.0125 3.59028C26.7265 3.59028 27.2777 3.82953 27.4615 4.67853C27.5792 5.18478 27.5305 6.51603 27.5305 7.05003V13.755C27.5305 13.9973 27.7285 14.1953 27.9745 14.2125H30.436C30.4972 14.2138 30.5581 14.203 30.6152 14.1807C30.6722 14.1584 30.7243 14.125 30.7685 14.0825C30.8126 14.04 30.8478 13.9891 30.8723 13.9329C30.8967 13.8768 30.9098 13.8163 30.9107 13.755L30.9145 5.77128C30.9145 4.41603 31.0742 2.86953 30.2942 1.80528C29.6042 0.848281 28.474 0.422281 27.4412 0.422281C25.9885 0.422281 24.6332 1.16778 24.037 2.76603C23.344 1.16778 22.3795 0.422281 20.8375 0.422281C19.3187 0.422281 18.1922 1.16778 17.593 2.76603H17.548V1.11228C17.538 0.999355 17.487 0.893995 17.4046 0.816073C17.3223 0.73815 17.2143 0.693051 17.101 0.689281H14.8022C14.7412 0.687687 14.6805 0.698182 14.6235 0.720161C14.5666 0.74214 14.5145 0.775168 14.4704 0.817345C14.4263 0.859521 14.3909 0.910011 14.3664 0.965907C14.3419 1.0218 14.3286 1.082 14.3275 1.14303V13.7933C14.3383 13.9044 14.3888 14.0078 14.4696 14.0848C14.5504 14.1618 14.6562 14.2071 14.7677 14.2125H17.233H17.2307ZM62.7872 0.421531C66.4442 0.421531 68.4242 3.56253 68.4242 7.55628C68.4242 11.415 66.2365 14.4758 62.7872 14.4758C59.1955 14.4758 57.2402 11.3348 57.2402 7.42128C57.2402 3.48303 59.2195 0.422281 62.7872 0.422281V0.421531ZM62.8075 3.00453C60.991 3.00453 60.8762 5.47953 60.8762 7.02228C60.8762 8.56878 60.8522 11.8688 62.7865 11.8688C64.6967 11.8688 64.7867 9.20628 64.7867 7.58403C64.7867 6.51603 64.7417 5.24028 64.4192 4.22853C64.1417 3.34803 63.5905 3.00453 62.8075 3.00453ZM73.1665 14.2125C73.2907 14.2148 73.4109 14.168 73.501 14.0824C73.5911 13.9968 73.6439 13.8792 73.648 13.755V6.94278C73.648 6.09003 73.693 5.32053 74.0395 4.54728C74.3132 3.93753 74.8645 3.53478 75.4645 3.53478C77.167 3.53478 77.0072 5.55903 77.0072 6.94278V13.8135C77.0312 14.0288 77.2187 14.1945 77.4437 14.2125H79.9157C80.1587 14.2125 80.3627 14.0355 80.3905 13.8135V5.85078C80.3905 4.62678 80.3905 2.92503 79.7455 1.91253C79.0525 0.820531 77.974 0.421531 76.8677 0.421531C75.1652 0.421531 74.1985 1.24653 73.5085 2.97678H73.4635V1.04253C73.4382 0.943938 73.3816 0.856204 73.3022 0.792507C73.2229 0.728809 73.125 0.692588 73.0232 0.689281H70.7387C70.489 0.689281 70.2842 0.869281 70.264 1.10178L70.2677 13.755C70.2677 13.9973 70.4657 14.1953 70.7117 14.2125H73.1665ZM40.3262 8.16978V7.63578C38.5412 7.63578 36.6587 8.01753 36.6587 10.1183C36.6587 11.1825 37.2137 11.9033 38.1595 11.9033C38.8495 11.9033 39.4735 11.4765 39.865 10.7835C40.3502 9.93078 40.3262 9.12978 40.3262 8.16978ZM42.8117 14.1773C42.7322 14.2451 42.6339 14.2871 42.53 14.2977C42.426 14.3083 42.3213 14.2869 42.2297 14.2365C41.4115 13.557 41.2622 13.2413 40.8152 12.5933C39.463 13.9733 38.503 14.3858 36.7525 14.3858C34.6757 14.3858 33.064 13.1063 33.064 10.545C33.064 8.54478 34.1455 7.18203 35.692 6.51678C37.03 5.92728 38.899 5.82378 40.327 5.66028V5.34153C40.327 4.75578 40.372 4.06203 40.0255 3.55578C39.7277 3.10203 39.1517 2.91453 38.6425 2.91453C37.7027 2.91453 36.8672 3.39603 36.6632 4.39503C36.6212 4.61703 36.4585 4.83528 36.2335 4.84578L33.8447 4.58928C33.6437 4.54428 33.418 4.38153 33.4772 4.07253C34.0247 1.17453 36.646 0.300781 38.9897 0.300781C40.189 0.300781 41.7565 0.619531 42.7022 1.52778C43.9015 2.64753 43.7875 4.14153 43.7875 5.76753V9.60828C43.7875 10.7625 44.266 11.2688 44.7167 11.8928C44.8727 12.1148 44.9072 12.3818 44.7062 12.5483C44.2037 12.9675 43.309 13.7475 42.817 14.1848L42.8132 14.178L42.8117 14.1773ZM8.01323 8.16978V7.63578C6.23123 7.63578 4.34873 8.01753 4.34873 10.1183C4.34873 11.1825 4.89998 11.9033 5.84648 11.9033C6.53948 11.9033 7.16048 11.4765 7.55198 10.7835C8.03723 9.93078 8.01323 9.12978 8.01323 8.16978ZM10.4987 14.1773C10.4192 14.2451 10.3209 14.2871 10.217 14.2977C10.113 14.3083 10.0083 14.2869 9.91673 14.2365C9.09848 13.557 8.95298 13.2413 8.50223 12.5933C7.14998 13.9733 6.19373 14.3858 4.43948 14.3858C2.36648 14.3858 0.750977 13.1063 0.750977 10.545C0.750977 8.54478 1.83623 7.18203 3.37898 6.51678C4.71698 5.92728 6.58598 5.82378 8.01398 5.66028V5.34153C8.01398 4.75578 8.05898 4.06203 7.71548 3.55578C7.41398 3.10203 6.83873 2.91453 6.33248 2.91453C5.39273 2.91453 4.55423 3.39603 4.34948 4.39503C4.30823 4.61703 4.14473 4.83528 3.92273 4.84578L1.53098 4.58928C1.32998 4.54428 1.10798 4.38153 1.16348 4.07253C1.71473 1.17453 4.33223 0.300781 6.67523 0.300781C7.87448 0.300781 9.44198 0.619531 10.3877 1.52778C11.587 2.64753 11.473 4.14153 11.473 5.76753V9.60828C11.473 10.7625 11.9515 11.2688 12.4022 11.8928C12.562 12.1148 12.5965 12.3818 12.3955 12.5483C11.893 12.9675 10.9982 13.7475 10.5062 14.1848L10.4995 14.178L10.4987 14.1773Z" fill="black"/>
</g>
</g>
<defs>
<clipPath id="clip0_73_33">
<rect width="80" height="24" fill="white" transform="translate(0.5 0.299805)"/>
</clipPath>
<clipPath id="clip1_73_33">
<rect width="80" height="24" fill="white" transform="translate(0.5 0.299805)"/>
</clipPath>
</defs>
</svg>
