<svg width="25" height="31" viewBox="0 0 25 31" fill="none" xmlns="http://www.w3.org/2000/svg">
<g clip-path="url(#clip0_73_28)">
<g clip-path="url(#clip1_73_28)">
<path d="M24.1612 23.5495C23.7441 24.5505 23.2273 25.507 22.6187 26.4046C21.8073 27.5954 21.1436 28.4197 20.6313 28.8766C19.8375 29.628 18.9883 30.0129 18.0772 30.0341C17.4236 30.0341 16.6353 29.8431 15.7178 29.4545C14.7975 29.0677 13.9519 28.8766 13.1784 28.8766C12.367 28.8766 11.4975 29.0677 10.567 29.4545C9.63472 29.8431 8.88426 30.0452 8.3101 30.0655C7.43687 30.1043 6.56733 29.7083 5.69872 28.8766C5.14395 28.3791 4.45072 27.5252 3.61995 26.3169C2.72918 25.0265 1.99625 23.5292 1.4221 21.8225C0.807331 19.9791 0.499023 18.1938 0.499023 16.4658C0.499023 14.4858 0.914408 12.7791 1.74702 11.3483C2.40148 10.1991 3.27102 9.29261 4.36025 8.62707C5.44948 7.96153 6.62641 7.62276 7.89287 7.60061C8.5861 7.60061 9.49533 7.82122 10.6252 8.25507C11.7523 8.69076 12.475 8.91138 12.7926 8.91138C13.0298 8.91138 13.8338 8.65292 15.1963 8.13876C16.4849 7.66153 17.5723 7.46399 18.463 7.54153C20.8769 7.74184 22.6907 8.72215 23.8963 10.4871C21.7372 11.8338 20.6692 13.7197 20.6904 16.14C20.7098 18.0249 21.3744 19.5932 22.6796 20.8385C23.2536 21.4046 23.9274 21.8596 24.667 22.1806C24.5128 22.6422 24.3447 23.0988 24.1612 23.5495ZM18.6246 1.12153C18.6246 2.59845 18.1003 3.97845 17.0553 5.25507C15.7944 6.77261 14.2695 7.64953 12.6153 7.51107C12.5931 7.32544 12.582 7.13864 12.5821 6.95168C12.5821 5.53384 13.1821 4.01538 14.2464 2.77476C14.7781 2.14615 15.4538 1.62368 16.2744 1.20738C17.0923 0.796608 17.8667 0.569531 18.5941 0.530762C18.6153 0.7283 18.6246 0.925839 18.6246 1.12153Z" fill="#666666"/>
</g>
</g>
<defs>
<clipPath id="clip0_73_28">
<rect width="24" height="30" fill="white" transform="translate(0.5 0.299805)"/>
</clipPath>
<clipPath id="clip1_73_28">
<rect width="24" height="30" fill="white" transform="translate(0.5 0.299805)"/>
</clipPath>
</defs>
</svg>
