<svg width="81" height="28" viewBox="0 0 81 28" fill="none" xmlns="http://www.w3.org/2000/svg">
<g clip-path="url(#clip0_73_18)">
<g clip-path="url(#clip1_73_18)">
<path d="M34.8034 14.6458C34.8034 18.3937 31.9085 21.1553 28.3563 21.1553C24.8041 21.1553 21.9092 18.3937 21.9092 14.6458C21.9092 10.8717 24.8041 8.13623 28.3563 8.13623C31.9085 8.13623 34.8034 10.8717 34.8034 14.6458ZM31.981 14.6458C31.981 12.3035 30.3037 10.7012 28.3563 10.7012C26.4089 10.7012 24.7315 12.3035 24.7315 14.6458C24.7315 16.9644 26.4089 18.5903 28.3563 18.5903C30.3037 18.5903 31.981 16.9619 31.981 14.6458Z" fill="#D85140"/>
<path d="M48.7116 14.6458C48.7116 18.3937 45.8167 21.1553 42.2645 21.1553C38.7123 21.1553 35.8174 18.3937 35.8174 14.6458C35.8174 10.8742 38.7123 8.13623 42.2645 8.13623C45.8167 8.13623 48.7116 10.8717 48.7116 14.6458ZM45.8892 14.6458C45.8892 12.3035 44.2119 10.7012 42.2645 10.7012C40.3171 10.7012 38.6397 12.3035 38.6397 14.6458C38.6397 16.9644 40.3171 18.5903 42.2645 18.5903C44.2119 18.5903 45.8892 16.9619 45.8892 14.6458Z" fill="#F1BF42"/>
<path d="M62.0403 8.52964V20.2156C62.0403 25.0224 59.2416 26.9858 55.9324 26.9858C52.8173 26.9858 50.9433 24.8756 50.2362 23.1501L52.6932 22.114C53.1311 23.1738 54.2027 24.4234 55.9299 24.4234C58.0477 24.4234 59.3605 23.0995 59.3605 20.6079V19.6714H59.2618C58.6299 20.4611 57.4132 21.1505 55.8775 21.1505C52.6645 21.1505 49.7207 18.3155 49.7207 14.6679C49.7207 10.9934 52.6645 8.13477 55.8775 8.13477C57.4106 8.13477 58.6273 8.82411 59.2618 9.59023H59.3605V8.53048L62.0403 8.52964ZM59.5597 14.6696C59.5597 12.3771 58.0502 10.7015 56.129 10.7015C54.1816 10.7015 52.5506 12.3771 52.5506 14.6696C52.5506 16.9385 54.1816 18.5905 56.129 18.5905C58.0502 18.5905 59.5597 16.9385 59.5597 14.6696Z" fill="#5383EC"/>
<path d="M66.4584 1.67969V20.756H63.7061V1.67969H66.4584Z" fill="#58A65C"/>
<path d="M77.1847 16.788L79.3751 18.2671C78.668 19.3268 76.9645 21.1519 74.0206 21.1519C70.3697 21.1519 67.6436 18.2933 67.6436 14.6423C67.6436 10.7712 70.3933 8.13281 73.7051 8.13281C77.0404 8.13281 78.6714 10.821 79.2046 12.2739L79.4974 13.0139L70.9063 16.6176C71.5636 17.9237 72.5871 18.5894 74.0215 18.5894C75.4584 18.5894 76.4557 17.8731 77.1855 16.7872L77.1847 16.788ZM70.4423 14.4466L76.1857 12.0309C75.8701 11.2184 74.9192 10.6514 73.8004 10.6514C72.366 10.6514 70.3697 11.9347 70.4423 14.4466Z" fill="#D85140"/>
<path d="M11.4909 12.9521V10.1906H20.6785C20.7679 10.6715 20.8143 11.241 20.8143 11.8578C20.8143 13.9301 20.2549 16.4917 18.4527 18.3176C16.6994 20.1662 14.4601 21.1526 11.4934 21.1526C5.99387 21.1526 1.37012 16.6157 1.37012 11.0453C1.37012 5.47483 5.99471 0.937988 11.4934 0.937988C14.536 0.937988 16.7027 2.14708 18.3312 3.72321L16.4074 5.67227C15.2397 4.56274 13.6576 3.70043 11.4901 3.70043C7.47381 3.70043 4.33337 6.9784 4.33337 11.0461C4.33337 15.1138 7.47381 18.3918 11.4901 18.3918C14.0947 18.3918 15.578 17.3321 16.5289 16.3693C17.2993 15.5889 17.8064 14.4734 18.0063 12.9505L11.4901 12.953L11.4909 12.9521Z" fill="#5383EC"/>
</g>
</g>
<defs>
<clipPath id="clip0_73_18">
<rect width="80" height="27" fill="white" transform="translate(0.5 0.799805)"/>
</clipPath>
<clipPath id="clip1_73_18">
<rect width="80" height="27" fill="white" transform="translate(0.5 0.799805)"/>
</clipPath>
</defs>
</svg>
