<svg width="85" height="19" viewBox="0 0 85 19" fill="none" xmlns="http://www.w3.org/2000/svg">
<g clip-path="url(#clip0_73_9)">
<g clip-path="url(#clip1_73_9)">
<path d="M30.199 10.6667L29.704 12.0899H29.663C29.5363 11.6137 29.3754 11.1473 29.1815 10.6943L26.527 3.92687H23.9277V14.7128H25.6467V8.05674C25.6467 7.63824 25.6467 7.16349 25.6327 6.57793C25.6192 6.28487 25.5916 6.06155 25.5775 5.89393H25.6186C25.7013 6.31243 25.7975 6.61955 25.8661 6.81474L29.0572 14.6847H30.2677L33.4312 6.74499C33.4998 6.56387 33.5684 6.20105 33.6376 5.89393H33.6787C33.6452 6.54017 33.6177 7.18669 33.596 7.83343V14.6706H35.4252V3.89874H32.9221L30.1985 10.6662L30.199 10.6667ZM37.1589 6.9413H38.947V14.6717H37.1589V6.9413ZM38.0667 3.67655C37.7641 3.67655 37.5166 3.78793 37.3102 3.98368C37.1037 4.17943 36.994 4.4303 36.994 4.73743C36.994 5.03049 37.1043 5.28137 37.3102 5.47712C37.516 5.67287 37.7641 5.77018 38.0667 5.77018C38.3694 5.77018 38.6309 5.6588 38.8233 5.47712C39.0297 5.28193 39.1394 5.03049 39.1394 4.73743C39.1394 4.44437 39.0292 4.19349 38.8233 3.98368C38.6444 3.78849 38.3834 3.67655 38.0667 3.67655ZM45.2881 6.87155C44.9581 6.80008 44.6217 6.76276 44.284 6.76018C43.4724 6.76018 42.7299 6.9413 42.1105 7.30412C41.4912 7.66693 40.9962 8.16924 40.6801 8.79699C40.3499 9.4388 40.1851 10.1785 40.1851 11.0296C40.1851 11.7692 40.3499 12.4251 40.6666 13.0247C40.9827 13.6109 41.4232 14.0851 42.0144 14.4062C42.5785 14.7274 43.2384 14.8945 43.9814 14.8945C44.8342 14.8945 45.5632 14.7134 46.1409 14.3781L46.1544 14.3641V12.6895L46.0857 12.7452C45.8233 12.9442 45.5307 13.0997 45.2189 13.2059C44.9028 13.3172 44.6137 13.3735 44.3662 13.3735C43.6507 13.3735 43.087 13.1642 42.6882 12.7036C42.2754 12.2569 42.0695 11.6432 42.0695 10.8754C42.0695 10.0801 42.2759 9.4523 42.7023 8.99162C43.1287 8.53093 43.6923 8.29412 44.3802 8.29412C44.9579 8.29412 45.5497 8.4893 46.0857 8.88024L46.1544 8.93593V7.16405L46.1409 7.14999C45.9069 7.05212 45.6459 6.9413 45.2881 6.87155ZM51.1887 6.81587C50.7483 6.81587 50.336 6.95537 49.9782 7.24843C49.6756 7.49987 49.4692 7.86212 49.2903 8.29468H49.2768V6.9413H47.4886V14.6717H49.2768V10.723C49.2768 10.0531 49.414 9.49505 49.7167 9.09062C50.0193 8.67212 50.4046 8.46287 50.872 8.46287C51.0369 8.46287 51.2022 8.50449 51.4087 8.53262C51.601 8.5883 51.7389 8.64399 51.835 8.71374L51.9037 8.76943V6.95537L51.8626 6.9413C51.7389 6.85749 51.4914 6.81587 51.1887 6.81587ZM56.0577 6.77368C54.8062 6.77368 53.8021 7.15055 53.1007 7.88968C52.3852 8.62937 52.0415 9.64805 52.0415 10.9317C52.0415 12.1315 52.3992 13.1086 53.0866 13.8201C53.7745 14.5176 54.7094 14.8804 55.8789 14.8804C57.1029 14.8804 58.0794 14.5036 58.7808 13.7504C59.4963 12.9966 59.84 11.992 59.84 10.7506C59.84 9.52262 59.5098 8.54612 58.8359 7.83455C58.1896 7.12299 57.2407 6.77424 56.0577 6.77424V6.77368ZM57.4882 12.7182C57.158 13.1507 56.6354 13.36 55.9891 13.36C55.3428 13.36 54.8202 13.1507 54.4484 12.6901C54.0772 12.2575 53.8983 11.6297 53.8983 10.8344C53.8983 10.0109 54.0907 9.38312 54.4484 8.93649C54.8197 8.48987 55.3287 8.26655 55.975 8.26655C56.6079 8.26655 57.1029 8.4758 57.4606 8.90837C57.8184 9.34093 58.0107 9.96868 58.0107 10.7922C57.9832 11.6292 57.8319 12.2856 57.4882 12.7182ZM63.8287 10.1509C63.265 9.91356 62.9073 9.73243 62.7419 9.57887C62.6041 9.43937 62.5355 9.24418 62.5355 8.99274C62.5355 8.78349 62.6182 8.57424 62.824 8.43474C63.0299 8.29524 63.2645 8.22549 63.6082 8.22549C63.9108 8.22549 64.2269 8.28118 64.5295 8.36499C64.8322 8.4488 65.1072 8.57424 65.3272 8.74187L65.3958 8.79755V7.09543L65.3547 7.08137C65.0915 6.979 64.8199 6.89958 64.543 6.84399C64.2524 6.79228 63.958 6.76425 63.6627 6.76018C62.81 6.76018 62.1085 6.96943 61.5584 7.43012C61.0083 7.86268 60.7467 8.4488 60.7467 9.13224C60.7467 9.49505 60.8019 9.81624 60.9256 10.0812C61.0494 10.3461 61.2282 10.5976 61.4757 10.8068C61.7232 11.002 62.081 11.2253 62.576 11.4346C62.9889 11.6157 63.305 11.7557 63.4974 11.8671C63.6897 11.9785 63.8135 12.1045 63.9102 12.2018C63.9789 12.3137 64.0205 12.4532 64.0205 12.6344C64.0205 13.1507 63.6352 13.4016 62.851 13.4016C62.5484 13.4016 62.2323 13.3459 61.861 13.2205C61.4898 13.0951 61.1455 12.9134 60.857 12.7041L60.7884 12.6484V14.4203L60.8294 14.4344C61.091 14.5598 61.4071 14.6436 61.7924 14.7415C62.1777 14.8112 62.5214 14.8669 62.824 14.8669C63.7454 14.8669 64.502 14.6577 65.0386 14.197C65.5887 13.7504 65.8779 13.1783 65.8779 12.4386C65.8779 11.9222 65.74 11.4621 65.4374 11.1128C64.9592 10.7032 64.4151 10.3776 63.8281 10.1498L63.8287 10.1509ZM70.5967 6.77368C69.3445 6.77368 68.3405 7.15055 67.639 7.88968C66.9376 8.6288 66.5799 9.64805 66.5799 10.9317C66.5799 12.1315 66.9376 13.1086 67.625 13.8201C68.3129 14.5176 69.2478 14.8804 70.4167 14.8804C71.6412 14.8804 72.6177 14.5036 73.3186 13.7504C74.0335 12.9966 74.3778 11.992 74.3778 10.7506C74.3778 9.52262 74.0476 8.54612 73.3737 7.83455C72.7269 7.12299 71.7779 6.77424 70.5955 6.77424L70.5967 6.77368ZM72.013 12.7182C71.6829 13.1507 71.1603 13.36 70.5134 13.36C69.8536 13.36 69.3445 13.1507 68.9733 12.6901C68.602 12.2575 68.4232 11.6297 68.4232 10.8344C68.4232 10.0109 68.6155 9.38312 68.9733 8.93649C69.3445 8.48987 69.8536 8.26655 70.5005 8.26655C71.1192 8.26655 71.6283 8.4758 71.9855 8.90837C72.3432 9.34093 72.5356 9.96868 72.5356 10.7922C72.5356 11.6292 72.3567 12.2856 72.013 12.7182ZM83.938 8.43418V6.9413H82.1358V4.65305L82.0812 4.66712L80.3347 5.19755V6.94187H77.6386V5.96537C77.6386 5.51874 77.7489 5.16999 77.9412 4.94668C78.1336 4.72337 78.4222 4.61199 78.7805 4.61199C79.0274 4.61199 79.2896 4.66768 79.5781 4.79312L79.6467 4.83474V3.25805L79.6057 3.24399C79.3576 3.16018 79.0274 3.10449 78.601 3.10449C78.065 3.10449 77.597 3.22993 77.1706 3.43918C76.7546 3.66567 76.4149 4.01037 76.1947 4.42974C75.9607 4.84824 75.8369 5.32299 75.8369 5.86693V6.9413H74.5854V8.42012H75.8369V14.6712H77.6392V8.43418H80.3352V12.4111C80.3352 14.0434 81.0918 14.8669 82.6044 14.8669C82.8524 14.8669 83.1134 14.8253 83.3609 14.7831C83.6219 14.7274 83.8143 14.6577 83.9245 14.602L83.9386 14.5879V13.0951L83.87 13.1507C83.7569 13.2281 83.631 13.2848 83.4982 13.3184C83.3824 13.3542 83.2621 13.3729 83.141 13.3741C82.7832 13.3741 82.5357 13.2902 82.3569 13.081C82.192 12.8858 82.1099 12.5646 82.1099 12.0904V8.43474H83.9392L83.938 8.43418Z" fill="black"/>
<path d="M0.875 0.299316H9.30631V8.85269H0.875V0.299316Z" fill="#E05C35"/>
<path d="M10.1865 0.299316H18.6178V8.85269H10.1865V0.299316Z" fill="#8CB838"/>
<path d="M0.875 9.74609H9.30631V18.2995H0.875V9.74609Z" fill="#49A2E9"/>
<path d="M10.1865 9.74609H18.6178V18.2995H10.1865V9.74609Z" fill="#F4BC41"/>
</g>
</g>
<defs>
<clipPath id="clip0_73_9">
<rect width="84" height="18" fill="white" transform="translate(0.5 0.299805)"/>
</clipPath>
<clipPath id="clip1_73_9">
<rect width="84" height="18" fill="white" transform="translate(0.5 0.299805)"/>
</clipPath>
</defs>
</svg>
