<svg width="88" height="24" viewBox="0 0 88 24" fill="none" xmlns="http://www.w3.org/2000/svg">
<path d="M22.4068 10.9779C22.6535 10.7853 22.8365 10.5167 22.9301 10.2097C23.0237 9.9027 23.0233 9.57269 22.9289 9.26594C22.8345 8.95919 22.6508 8.6911 22.4036 8.49924C22.1565 8.30739 21.8582 8.2014 21.5506 8.19614L15.5773 7.95969C15.548 7.95757 15.5198 7.94659 15.4963 7.92808C15.4727 7.90957 15.4548 7.88432 15.4446 7.85538L13.3805 2.01371C13.2768 1.7165 13.0884 1.45987 12.8409 1.27856C12.5934 1.09724 12.2987 1 11.9967 1C11.6947 1 11.4 1.09724 11.1525 1.27856C10.9049 1.45987 10.7166 1.7165 10.6129 2.01371L8.5554 7.87624C8.54523 7.90519 8.52728 7.93044 8.50373 7.94895C8.48018 7.96745 8.45202 7.97843 8.42266 7.98056L2.44935 8.217C2.1418 8.22227 1.84353 8.32826 1.59636 8.52011C1.3492 8.71196 1.16553 8.98006 1.07112 9.2868C0.976709 9.59355 0.976285 9.92357 1.06991 10.2306C1.16353 10.5376 1.34651 10.8062 1.59318 10.9988L6.2789 14.8584C6.30235 14.8778 6.31988 14.9039 6.32932 14.9335C6.33876 14.9632 6.33969 14.9951 6.332 15.0253L4.71921 21.013C4.63563 21.318 4.64373 21.6424 4.7424 21.9424C4.84106 22.2423 5.02551 22.5031 5.27064 22.6892C5.51578 22.8754 5.8097 22.978 6.11242 22.9829C6.41514 22.9878 6.71196 22.895 6.96251 22.7169L11.9137 19.2397C11.9381 19.222 11.967 19.2126 11.9967 19.2126C12.0263 19.2126 12.0553 19.222 12.0796 19.2397L17.0308 22.7169C17.278 22.901 17.5738 23 17.8771 23C18.1804 23 18.4761 22.901 18.7233 22.7169C18.9685 22.5324 19.1531 22.2729 19.2518 21.974C19.3504 21.6751 19.3582 21.3516 19.2742 21.0478L17.6481 15.0392C17.6395 15.0091 17.6399 14.9769 17.6495 14.947C17.659 14.9171 17.677 14.8911 17.7012 14.8723L22.4068 10.9779Z" fill="#AA43A2"/>
<path d="M86.4068 10.9779C86.6535 10.7853 86.8365 10.5167 86.9301 10.2097C87.0237 9.9027 87.0233 9.57269 86.9289 9.26594C86.8345 8.95919 86.6508 8.6911 86.4036 8.49924C86.1565 8.30739 85.8582 8.2014 85.5506 8.19614L79.5773 7.95969C79.548 7.95757 79.5198 7.94659 79.4963 7.92808C79.4727 7.90957 79.4548 7.88432 79.4446 7.85538L77.3805 2.01371C77.2768 1.7165 77.0884 1.45987 76.8409 1.27856C76.5934 1.09724 76.2987 1 75.9967 1C75.6947 1 75.4 1.09724 75.1525 1.27856C74.9049 1.45987 74.7166 1.7165 74.6129 2.01371L72.5554 7.87624C72.5452 7.90519 72.5273 7.93044 72.5037 7.94895C72.4802 7.96745 72.452 7.97843 72.4227 7.98056L66.4493 8.217C66.1418 8.22227 65.8435 8.32826 65.5964 8.52011C65.3492 8.71196 65.1655 8.98006 65.0711 9.2868C64.9767 9.59355 64.9763 9.92357 65.0699 10.2306C65.1635 10.5376 65.3465 10.8062 65.5932 10.9988L70.2789 14.8584C70.3024 14.8778 70.3199 14.9039 70.3293 14.9335C70.3388 14.9632 70.3397 14.9951 70.332 15.0253L68.7192 21.013C68.6356 21.318 68.6437 21.6424 68.7424 21.9424C68.8411 22.2423 69.0255 22.5031 69.2706 22.6892C69.5158 22.8754 69.8097 22.978 70.1124 22.9829C70.4151 22.9878 70.712 22.895 70.9625 22.7169L75.9137 19.2397C75.9381 19.222 75.967 19.2126 75.9967 19.2126C76.0263 19.2126 76.0553 19.222 76.0796 19.2397L81.0308 22.7169C81.278 22.901 81.5738 23 81.8771 23C82.1804 23 82.4761 22.901 82.7233 22.7169C82.9685 22.5324 83.1531 22.2729 83.2518 21.974C83.3504 21.6751 83.3582 21.3516 83.2742 21.0478L81.6481 15.0392C81.6395 15.0091 81.6399 14.9769 81.6495 14.947C81.659 14.9171 81.677 14.8911 81.7012 14.8723L86.4068 10.9779Z" fill="#AA43A2"/>
<path d="M54.4068 10.9779C54.6535 10.7853 54.8365 10.5167 54.9301 10.2097C55.0237 9.9027 55.0233 9.57269 54.9289 9.26594C54.8345 8.95919 54.6508 8.6911 54.4036 8.49924C54.1565 8.30739 53.8582 8.2014 53.5506 8.19614L47.5773 7.95969C47.548 7.95757 47.5198 7.94659 47.4963 7.92808C47.4727 7.90957 47.4548 7.88432 47.4446 7.85538L45.3805 2.01371C45.2768 1.7165 45.0884 1.45987 44.8409 1.27856C44.5934 1.09724 44.2987 1 43.9967 1C43.6947 1 43.4 1.09724 43.1525 1.27856C42.9049 1.45987 42.7166 1.7165 42.6129 2.01371L40.5554 7.87624C40.5452 7.90519 40.5273 7.93044 40.5037 7.94895C40.4802 7.96745 40.452 7.97843 40.4227 7.98056L34.4493 8.217C34.1418 8.22227 33.8435 8.32826 33.5964 8.52011C33.3492 8.71196 33.1655 8.98006 33.0711 9.2868C32.9767 9.59355 32.9763 9.92357 33.0699 10.2306C33.1635 10.5376 33.3465 10.8062 33.5932 10.9988L38.2789 14.8584C38.3024 14.8778 38.3199 14.9039 38.3293 14.9335C38.3388 14.9632 38.3397 14.9951 38.332 15.0253L36.7192 21.013C36.6356 21.318 36.6437 21.6424 36.7424 21.9424C36.8411 22.2423 37.0255 22.5031 37.2706 22.6892C37.5158 22.8754 37.8097 22.978 38.1124 22.9829C38.4151 22.9878 38.712 22.895 38.9625 22.7169L43.9137 19.2397C43.9381 19.222 43.967 19.2126 43.9967 19.2126C44.0263 19.2126 44.0553 19.222 44.0796 19.2397L49.0308 22.7169C49.278 22.901 49.5738 23 49.8771 23C50.1804 23 50.4761 22.901 50.7233 22.7169C50.9685 22.5324 51.1531 22.2729 51.2518 21.974C51.3504 21.6751 51.3582 21.3516 51.2742 21.0478L49.6481 15.0392C49.6395 15.0091 49.6399 14.9769 49.6495 14.947C49.659 14.9171 49.677 14.8911 49.7012 14.8723L54.4068 10.9779Z" fill="#AA43A2"/>
</svg>
