<svg width="80" height="16" viewBox="0 0 80 16" fill="none" xmlns="http://www.w3.org/2000/svg">
<path d="M15.424 6.93173C15.6017 6.79793 15.7336 6.61133 15.801 6.39805C15.8685 6.18478 15.8682 5.95552 15.8002 5.74242C15.7321 5.52932 15.5998 5.34307 15.4217 5.20978C15.2436 5.0765 15.0287 5.00287 14.8071 4.99922L10.5032 4.83495C10.4821 4.83348 10.4618 4.82585 10.4448 4.81299C10.4278 4.80014 10.4149 4.78259 10.4076 4.76249L8.92037 0.704233C8.84565 0.497758 8.70991 0.319476 8.53158 0.193518C8.35325 0.0675535 8.14092 0 7.92332 0C7.70572 0 7.49339 0.0675535 7.31506 0.193518C7.13666 0.319476 7.00098 0.497758 6.92627 0.704233L5.4438 4.77698C5.43647 4.79709 5.42354 4.81463 5.40657 4.82749C5.3896 4.84035 5.36931 4.84797 5.34816 4.84945L1.04428 5.01371C0.822687 5.01737 0.607778 5.091 0.429688 5.22428C0.251605 5.35756 0.119267 5.54381 0.0512431 5.75691C-0.0167817 5.97001 -0.0170872 6.19928 0.0503713 6.41257C0.117826 6.62585 0.249666 6.81245 0.427397 6.94625L3.80354 9.62755C3.82044 9.64102 3.83307 9.65915 3.83987 9.67972C3.84667 9.70035 3.84734 9.72251 3.8418 9.74349L2.67976 13.9032C2.61954 14.1151 2.62537 14.3404 2.69647 14.5489C2.76755 14.7572 2.90045 14.9384 3.07707 15.0677C3.2537 15.197 3.46547 15.2683 3.68359 15.2717C3.90171 15.2751 4.11557 15.2106 4.2961 15.0869L7.86352 12.6713C7.8811 12.659 7.90192 12.6524 7.92332 12.6524C7.94465 12.6524 7.96554 12.659 7.98305 12.6713L11.5505 15.0869C11.7286 15.2148 11.9417 15.2836 12.1603 15.2836C12.3788 15.2836 12.5918 15.2148 12.77 15.0869C12.9466 14.9587 13.0796 14.7785 13.1507 14.5708C13.2218 14.3632 13.2274 14.1384 13.1669 13.9274L11.9953 9.75315C11.9891 9.73224 11.9893 9.70987 11.9963 9.6891C12.0031 9.66832 12.0161 9.65026 12.0335 9.6372L15.424 6.93173Z" fill="#AA43A2"/>
<path d="M79.424 6.93173C79.6017 6.79793 79.7336 6.61133 79.801 6.39805C79.8685 6.18478 79.8682 5.95552 79.8002 5.74242C79.7321 5.52932 79.5998 5.34307 79.4217 5.20978C79.2436 5.0765 79.0287 5.00287 78.8071 4.99922L74.5032 4.83495C74.4821 4.83348 74.4618 4.82585 74.4448 4.81299C74.4278 4.80014 74.4149 4.78259 74.4076 4.76249L72.9204 0.704233C72.8457 0.497758 72.7099 0.319476 72.5316 0.193518C72.3533 0.0675535 72.1409 0 71.9233 0C71.7057 0 71.4934 0.0675535 71.3151 0.193518C71.1367 0.319476 71.001 0.497758 70.9263 0.704233L69.4438 4.77698C69.4365 4.79709 69.4235 4.81463 69.4066 4.82749C69.3896 4.84035 69.3693 4.84797 69.3482 4.84945L65.0443 5.01371C64.8227 5.01737 64.6078 5.091 64.4297 5.22428C64.2516 5.35756 64.1193 5.54381 64.0512 5.75691C63.9832 5.97001 63.9829 6.19928 64.0504 6.41257C64.1178 6.62585 64.2497 6.81245 64.4274 6.94625L67.8035 9.62755C67.8204 9.64102 67.8331 9.65915 67.8399 9.67972C67.8467 9.70035 67.8473 9.72251 67.8418 9.74349L66.6798 13.9032C66.6195 14.1151 66.6254 14.3404 66.6965 14.5489C66.7676 14.7572 66.9005 14.9384 67.0771 15.0677C67.2537 15.197 67.4655 15.2683 67.6836 15.2717C67.9017 15.2751 68.1156 15.2106 68.2961 15.0869L71.8635 12.6713C71.8811 12.659 71.9019 12.6524 71.9233 12.6524C71.9446 12.6524 71.9655 12.659 71.9831 12.6713L75.5505 15.0869C75.7286 15.2148 75.9417 15.2836 76.1603 15.2836C76.3788 15.2836 76.5918 15.2148 76.77 15.0869C76.9466 14.9587 77.0796 14.7785 77.1507 14.5708C77.2218 14.3632 77.2274 14.1384 77.1669 13.9274L75.9953 9.75315C75.9891 9.73224 75.9893 9.70987 75.9963 9.6891C76.0031 9.66832 76.0161 9.65026 76.0335 9.6372L79.424 6.93173Z" fill="#AA43A2"/>
<path d="M47.424 6.93173C47.6017 6.79793 47.7336 6.61133 47.801 6.39805C47.8685 6.18478 47.8682 5.95552 47.8002 5.74242C47.7321 5.52932 47.5998 5.34307 47.4217 5.20978C47.2436 5.0765 47.0287 5.00287 46.8071 4.99922L42.5032 4.83495C42.4821 4.83348 42.4618 4.82585 42.4448 4.81299C42.4278 4.80014 42.4149 4.78259 42.4076 4.76249L40.9204 0.704233C40.8457 0.497758 40.7099 0.319476 40.5316 0.193518C40.3533 0.0675535 40.1409 0 39.9233 0C39.7057 0 39.4934 0.0675535 39.3151 0.193518C39.1367 0.319476 39.001 0.497758 38.9263 0.704233L37.4438 4.77698C37.4365 4.79709 37.4235 4.81463 37.4066 4.82749C37.3896 4.84035 37.3693 4.84797 37.3482 4.84945L33.0443 5.01371C32.8227 5.01737 32.6078 5.091 32.4297 5.22428C32.2516 5.35756 32.1193 5.54381 32.0512 5.75691C31.9832 5.97001 31.9829 6.19928 32.0504 6.41257C32.1178 6.62585 32.2497 6.81245 32.4274 6.94625L35.8035 9.62755C35.8204 9.64102 35.8331 9.65915 35.8399 9.67972C35.8467 9.70035 35.8473 9.72251 35.8418 9.74349L34.6798 13.9032C34.6195 14.1151 34.6254 14.3404 34.6965 14.5489C34.7676 14.7572 34.9005 14.9384 35.0771 15.0677C35.2537 15.197 35.4655 15.2683 35.6836 15.2717C35.9017 15.2751 36.1156 15.2106 36.2961 15.0869L39.8635 12.6713C39.8811 12.659 39.9019 12.6524 39.9233 12.6524C39.9446 12.6524 39.9655 12.659 39.9831 12.6713L43.5505 15.0869C43.7286 15.2148 43.9417 15.2836 44.1603 15.2836C44.3788 15.2836 44.5918 15.2148 44.77 15.0869C44.9466 14.9587 45.0796 14.7785 45.1507 14.5708C45.2218 14.3632 45.2274 14.1384 45.1669 13.9274L43.9953 9.75315C43.9891 9.73224 43.9893 9.70987 43.9963 9.6891C44.0031 9.66832 44.0161 9.65026 44.0335 9.6372L47.424 6.93173Z" fill="#AA43A2"/>
</svg>
