<svg width="88" height="24" viewBox="0 0 88 24" fill="none" xmlns="http://www.w3.org/2000/svg">
<path d="M22.4068 10.9779C22.6535 10.7853 22.8365 10.5167 22.9301 10.2097C23.0237 9.9027 23.0233 9.57269 22.9289 9.26594C22.8345 8.95919 22.6508 8.6911 22.4036 8.49924C22.1565 8.30739 21.8582 8.2014 21.5506 8.19614L15.5773 7.95969C15.548 7.95757 15.5198 7.94659 15.4963 7.92808C15.4727 7.90957 15.4548 7.88432 15.4446 7.85538L13.3805 2.01371C13.2768 1.7165 13.0884 1.45987 12.8409 1.27856C12.5934 1.09724 12.2987 1 11.9967 1C11.6947 1 11.4 1.09724 11.1525 1.27856C10.9049 1.45987 10.7166 1.7165 10.6129 2.01371L8.5554 7.87624C8.54523 7.90519 8.52728 7.93044 8.50373 7.94895C8.48018 7.96745 8.45202 7.97843 8.42266 7.98056L2.44935 8.217C2.1418 8.22227 1.84353 8.32826 1.59636 8.52011C1.3492 8.71196 1.16553 8.98006 1.07112 9.2868C0.976709 9.59355 0.976285 9.92357 1.06991 10.2306C1.16353 10.5376 1.34651 10.8062 1.59318 10.9988L6.2789 14.8584C6.30235 14.8778 6.31988 14.9039 6.32932 14.9335C6.33876 14.9632 6.33969 14.9951 6.332 15.0253L4.71921 21.013C4.63563 21.318 4.64373 21.6424 4.7424 21.9424C4.84106 22.2423 5.02551 22.5031 5.27064 22.6892C5.51578 22.8754 5.8097 22.978 6.11242 22.9829C6.41514 22.9878 6.71196 22.895 6.96251 22.7169L11.9137 19.2397C11.9381 19.222 11.967 19.2126 11.9967 19.2126C12.0263 19.2126 12.0553 19.222 12.0796 19.2397L17.0308 22.7169C17.278 22.901 17.5738 23 17.8771 23C18.1804 23 18.4761 22.901 18.7233 22.7169C18.9685 22.5324 19.1531 22.2729 19.2518 21.974C19.3504 21.6751 19.3582 21.3516 19.2742 21.0478L17.6481 15.0392C17.6395 15.0091 17.6399 14.9769 17.6495 14.947C17.659 14.9171 17.677 14.8911 17.7012 14.8723L22.4068 10.9779Z" fill="#AA43A2"/>
<path d="M54.4068 10.9779C54.6535 10.7853 54.8365 10.5167 54.9301 10.2097C55.0237 9.9027 55.0233 9.57269 54.9289 9.26594C54.8345 8.95919 54.6508 8.6911 54.4036 8.49924C54.1565 8.30739 53.8582 8.2014 53.5506 8.19614L47.5773 7.95969C47.548 7.95757 47.5198 7.94659 47.4963 7.92808C47.4727 7.90957 47.4548 7.88432 47.4446 7.85538L45.3805 2.01371C45.2768 1.7165 45.0884 1.45987 44.8409 1.27856C44.5934 1.09724 44.2987 1 43.9967 1C43.6947 1 43.4 1.09724 43.1525 1.27856C42.9049 1.45987 42.7166 1.7165 42.6129 2.01371L40.5554 7.87624C40.5452 7.90519 40.5273 7.93044 40.5037 7.94895C40.4802 7.96745 40.452 7.97843 40.4227 7.98056L34.4493 8.217C34.1418 8.22227 33.8435 8.32826 33.5964 8.52011C33.3492 8.71196 33.1655 8.98006 33.0711 9.2868C32.9767 9.59355 32.9763 9.92357 33.0699 10.2306C33.1635 10.5376 33.3465 10.8062 33.5932 10.9988L38.2789 14.8584C38.3024 14.8778 38.3199 14.9039 38.3293 14.9335C38.3388 14.9632 38.3397 14.9951 38.332 15.0253L36.7192 21.013C36.6356 21.318 36.6437 21.6424 36.7424 21.9424C36.8411 22.2423 37.0255 22.5031 37.2706 22.6892C37.5158 22.8754 37.8097 22.978 38.1124 22.9829C38.4151 22.9878 38.712 22.895 38.9625 22.7169L43.9137 19.2397C43.9381 19.222 43.967 19.2126 43.9967 19.2126C44.0263 19.2126 44.0553 19.222 44.0796 19.2397L49.0308 22.7169C49.278 22.901 49.5738 23 49.8771 23C50.1804 23 50.4761 22.901 50.7233 22.7169C50.9685 22.5324 51.1531 22.2729 51.2518 21.974C51.3504 21.6751 51.3582 21.3516 51.2742 21.0478L49.6481 15.0392C49.6395 15.0091 49.6399 14.9769 49.6495 14.947C49.659 14.9171 49.677 14.8911 49.7012 14.8723L54.4068 10.9779Z" fill="#AA43A2"/>
<path d="M71.044 14.7062C71.096 14.8697 71.101 15.0444 71.0588 15.2103L71.0562 15.2204L69.4434 21.2081L69.4425 21.2113C69.3979 21.3743 69.4023 21.5483 69.4548 21.708C69.5073 21.8675 69.6035 22.0002 69.7243 22.092C69.8446 22.1833 69.9844 22.2307 70.1247 22.233C70.2649 22.2353 70.4056 22.1925 70.528 22.1056L70.5315 22.1031L75.4802 18.6276C75.6292 18.5218 75.8091 18.4626 75.9967 18.4626C76.1843 18.4626 76.3642 18.5218 76.5132 18.6277L81.4619 22.1031L81.4705 22.1092L81.479 22.1155C81.5989 22.2049 81.7381 22.25 81.8771 22.25C82.0155 22.25 82.1541 22.2052 82.2738 22.1165C82.3928 22.0265 82.4877 21.896 82.5395 21.739C82.5917 21.5811 82.5959 21.4089 82.5513 21.2479L82.5502 21.2437L80.9249 15.2381C80.8779 15.0682 80.8812 14.8879 80.9347 14.7196C80.9874 14.554 81.0878 14.4033 81.2284 14.2901L85.9286 10.4001L85.9369 10.3933L85.9453 10.3867C86.0671 10.2916 86.1628 10.1545 86.2127 9.99095M71.044 14.7062L70.3293 14.9335M71.044 14.7062C70.992 14.5425 70.8936 14.3932 70.7561 14.2798L66.07 10.4199L66.0624 10.4136L66.0547 10.4075C65.9328 10.3125 65.8372 10.1754 65.7873 10.0118C65.7373 9.84803 65.7376 9.67104 65.7879 9.50743C65.8382 9.34404 65.9342 9.20728 66.0562 9.11257C66.1777 9.0183 66.3197 8.96933 66.4622 8.96689L66.4706 8.96675L66.479 8.96642L72.4523 8.72997L72.4646 8.72948L72.4768 8.7286C72.658 8.71549 72.8282 8.64786 72.9671 8.53864C73.1056 8.42973 73.2068 8.28493 73.263 8.12483L75.3205 2.26207L75.321 2.2608C75.376 2.10302 75.474 1.97272 75.5957 1.88359C75.7168 1.79485 75.8568 1.75 75.9967 1.75C76.1366 1.75 76.2766 1.79485 76.3977 1.88359C76.5194 1.97272 76.6173 2.10302 76.6724 2.26081L76.6733 2.26357L78.737 8.10395L79.4446 7.85538L78.7375 8.10524C78.7938 8.26502 78.8945 8.40907 79.0328 8.51778M79.0328 8.51778L79.4963 7.92808M79.0328 8.51778C79.1718 8.62701 79.342 8.69463 79.5232 8.70774L79.5354 8.70862L79.5477 8.7091L85.521 8.94555L85.5294 8.94589L85.5378 8.94603C85.6803 8.94847 85.8223 8.99743 85.9438 9.09171C86.0658 9.18642 86.1618 9.32318 86.2121 9.48656C86.2624 9.65018 86.2627 9.82716 86.2127 9.99095M86.2127 9.99095L86.9301 10.2097" stroke="#AA43A2" stroke-opacity="0.5" stroke-width="1.5"/>
</svg>
