<svg width="81" height="16" viewBox="0 0 81 16" fill="none" xmlns="http://www.w3.org/2000/svg">
<path d="M15.424 6.93173C15.6017 6.79793 15.7336 6.61133 15.801 6.39805C15.8685 6.18478 15.8682 5.95552 15.8002 5.74242C15.7321 5.52932 15.5998 5.34307 15.4217 5.20978C15.2436 5.0765 15.0287 5.00287 14.8071 4.99922L10.5032 4.83495C10.4821 4.83348 10.4618 4.82585 10.4448 4.81299C10.4278 4.80014 10.4149 4.78259 10.4076 4.76249L8.92037 0.704233C8.84565 0.497758 8.70991 0.319476 8.53158 0.193518C8.35325 0.0675535 8.14092 0 7.92332 0C7.70572 0 7.49339 0.0675535 7.31506 0.193518C7.13666 0.319476 7.00098 0.497758 6.92627 0.704233L5.4438 4.77698C5.43647 4.79709 5.42354 4.81463 5.40657 4.82749C5.3896 4.84035 5.36931 4.84797 5.34816 4.84945L1.04428 5.01371C0.822687 5.01737 0.607778 5.091 0.429688 5.22428C0.251605 5.35756 0.119267 5.54381 0.0512431 5.75691C-0.0167817 5.97001 -0.0170872 6.19928 0.0503713 6.41257C0.117826 6.62585 0.249666 6.81245 0.427397 6.94625L3.80354 9.62755C3.82044 9.64102 3.83307 9.65915 3.83987 9.67972C3.84667 9.70035 3.84734 9.72251 3.8418 9.74349L2.67976 13.9032C2.61954 14.1151 2.62537 14.3404 2.69647 14.5489C2.76755 14.7572 2.90045 14.9384 3.07707 15.0677C3.2537 15.197 3.46547 15.2683 3.68359 15.2717C3.90171 15.2751 4.11557 15.2106 4.2961 15.0869L7.86352 12.6713C7.8811 12.659 7.90192 12.6524 7.92332 12.6524C7.94465 12.6524 7.96554 12.659 7.98305 12.6713L11.5505 15.0869C11.7286 15.2148 11.9417 15.2836 12.1603 15.2836C12.3788 15.2836 12.5918 15.2148 12.77 15.0869C12.9466 14.9587 13.0796 14.7785 13.1507 14.5708C13.2218 14.3632 13.2274 14.1384 13.1669 13.9274L11.9953 9.75315C11.9891 9.73224 11.9893 9.70987 11.9963 9.6891C12.0031 9.66832 12.0161 9.65026 12.0335 9.6372L15.424 6.93173Z" fill="#AA43A2"/>
<path d="M68.7493 9.84814C68.7861 9.95979 68.7896 10.0791 68.7598 10.1924L68.7579 10.1993L67.6157 14.2885L67.6151 14.2906C67.5835 14.402 67.5866 14.5208 67.6238 14.6299C67.661 14.7388 67.7291 14.8294 67.8147 14.8921C67.8998 14.9544 67.9989 14.9868 68.0982 14.9884C68.1975 14.99 68.2972 14.9607 68.3838 14.9014L68.3863 14.8997L71.891 12.5262C71.9966 12.4539 72.124 12.4135 72.2568 12.4135C72.3897 12.4135 72.5171 12.4539 72.6226 12.5262L76.1274 14.8997L76.1334 14.9038L76.1395 14.9081C76.2244 14.9692 76.323 15 76.4214 15C76.5194 15 76.6176 14.9694 76.7024 14.9088C76.7866 14.8474 76.8538 14.7582 76.8905 14.651C76.9275 14.5432 76.9305 14.4256 76.8989 14.3156L76.8981 14.3128L75.747 10.2114C75.7138 10.0954 75.7161 9.97222 75.754 9.85729C75.7913 9.74419 75.8624 9.64128 75.962 9.56397L79.2907 6.90739L79.2966 6.90274L79.3026 6.89823C79.3888 6.83329 79.4566 6.73966 79.4919 6.62797M68.7493 9.84814L68.2431 10.0034M68.7493 9.84814C68.7125 9.73634 68.6428 9.63438 68.5454 9.55694L65.2266 6.92091L65.2213 6.9166L65.2158 6.91244C65.1295 6.84756 65.0618 6.75393 65.0264 6.6422C64.991 6.53036 64.9912 6.40949 65.0269 6.29776C65.0625 6.18617 65.1305 6.09278 65.2169 6.0281C65.3029 5.96372 65.4035 5.93027 65.5044 5.92861L65.5103 5.92851L65.5163 5.92829L69.7467 5.76681L69.7554 5.76647L69.764 5.76587C69.8923 5.75692 70.0129 5.71073 70.1112 5.63614C70.2093 5.56177 70.281 5.46288 70.3208 5.35354L71.7779 1.34971L71.7783 1.34884C71.8173 1.24109 71.8867 1.1521 71.9728 1.09123C72.0586 1.03063 72.1578 1 72.2568 1C72.3559 1 72.4551 1.03063 72.5408 1.09123C72.627 1.1521 72.6964 1.24109 72.7354 1.34885L72.736 1.35073L74.1976 5.33928L74.6987 5.16953L74.1979 5.34016C74.2378 5.44928 74.3091 5.54766 74.407 5.6219M74.407 5.6219L74.7353 5.21918M74.407 5.6219C74.5055 5.69649 74.626 5.74267 74.7543 5.75163L74.763 5.75223L74.7717 5.75256L79.0021 5.91403L79.008 5.91427L79.014 5.91436C79.1149 5.91603 79.2154 5.94946 79.3015 6.01385C79.3879 6.07853 79.4559 6.17193 79.4915 6.2835C79.5271 6.39524 79.5273 6.51611 79.4919 6.62797M79.4919 6.62797L80 6.77736" stroke="#AA43A2" stroke-opacity="0.5" stroke-width="1.5"/>
<path d="M36.7493 9.84814C36.7861 9.95979 36.7896 10.0791 36.7598 10.1924L36.7579 10.1993L35.6157 14.2885L35.6151 14.2906C35.5835 14.402 35.5866 14.5208 35.6238 14.6299C35.661 14.7388 35.7291 14.8294 35.8147 14.8921C35.8998 14.9544 35.9989 14.9868 36.0982 14.9884C36.1975 14.99 36.2972 14.9607 36.3838 14.9014L36.3863 14.8997L39.891 12.5262C39.9966 12.4539 40.124 12.4135 40.2568 12.4135C40.3897 12.4135 40.5171 12.4539 40.6226 12.5262L44.1274 14.8997L44.1334 14.9038L44.1395 14.9081C44.2244 14.9692 44.323 15 44.4214 15C44.5194 15 44.6176 14.9694 44.7024 14.9088C44.7866 14.8474 44.8538 14.7582 44.8905 14.651C44.9275 14.5432 44.9305 14.4256 44.8989 14.3156L44.8981 14.3128L43.747 10.2114C43.7138 10.0954 43.7161 9.97222 43.754 9.85729C43.7913 9.74419 43.8624 9.64128 43.962 9.56397L47.2907 6.90739L47.2966 6.90274L47.3026 6.89823C47.3888 6.83329 47.4566 6.73966 47.4919 6.62797M36.7493 9.84814L36.2431 10.0034M36.7493 9.84814C36.7125 9.73634 36.6428 9.63438 36.5454 9.55694L33.2266 6.92091L33.2213 6.9166L33.2158 6.91244C33.1295 6.84756 33.0618 6.75393 33.0264 6.6422C32.991 6.53036 32.9912 6.40949 33.0269 6.29776C33.0625 6.18617 33.1305 6.09278 33.2169 6.0281C33.3029 5.96372 33.4035 5.93027 33.5044 5.92861L33.5103 5.92851L33.5163 5.92829L37.7467 5.76681L37.7554 5.76647L37.764 5.76587C37.8923 5.75692 38.0129 5.71073 38.1112 5.63614C38.2093 5.56177 38.281 5.46288 38.3208 5.35354L39.7779 1.34971L39.7783 1.34884C39.8173 1.24109 39.8867 1.1521 39.9728 1.09123C40.0586 1.03063 40.1578 1 40.2568 1C40.3559 1 40.4551 1.03063 40.5408 1.09123C40.627 1.1521 40.6964 1.24109 40.7354 1.34885L40.736 1.35073L42.1976 5.33928L42.6987 5.16953L42.1979 5.34016C42.2378 5.44928 42.3091 5.54766 42.407 5.6219M42.407 5.6219L42.7353 5.21918M42.407 5.6219C42.5055 5.69649 42.626 5.74267 42.7543 5.75163L42.763 5.75223L42.7717 5.75256L47.0021 5.91403L47.008 5.91427L47.014 5.91436C47.1149 5.91603 47.2154 5.94946 47.3015 6.01385C47.3879 6.07853 47.4559 6.17193 47.4915 6.2835C47.5271 6.39524 47.5273 6.51611 47.4919 6.62797M47.4919 6.62797L48 6.77736" stroke="#AA43A2" stroke-opacity="0.5" stroke-width="1.5"/>
</svg>
