<svg width="56" height="56" viewBox="0 0 56 56" fill="none" xmlns="http://www.w3.org/2000/svg">
<g clip-path="url(#clip0_80_103)">
<g filter="url(#filter0_d_80_103)">
<path d="M28.5651 2.03638H3.84956C3.17206 2.03638 2.62305 2.59907 2.62305 3.29344V51.9422C2.62305 52.6366 3.17206 53.1988 3.84956 53.1988H39.45C40.1271 53.1988 40.6761 52.6361 40.6761 51.9422V14.4495C40.6761 13.6344 40.3604 12.8531 39.7984 12.2767L30.6847 2.93636C30.1223 2.35993 29.36 2.03638 28.5651 2.03638Z" fill="url(#paint0_linear_80_103)"/>
<path d="M30.4794 2.74521C30.4152 2.69067 30.349 2.63897 30.2808 2.5905C30.2753 2.58646 30.2693 2.58201 30.2634 2.57797C30.1937 2.5291 30.1223 2.48305 30.0494 2.44063C30.0459 2.43821 30.0423 2.43619 30.0388 2.43417C29.9631 2.39055 29.8855 2.34975 29.8066 2.31299V12.1268C29.8066 12.4786 29.9761 12.7892 30.2354 12.9799L40.6762 23.6807V14.4494C40.6762 13.6343 40.3605 12.853 39.7985 12.277L30.6847 2.93627C30.6241 2.87406 30.5606 2.81549 30.4956 2.75934C30.4901 2.7545 30.4849 2.74965 30.4794 2.74521Z" fill="url(#paint1_linear_80_103)"/>
<path d="M29.8066 12.1268V2.31299C30.1302 2.46406 30.4282 2.6733 30.6847 2.93627L39.7981 12.2766C40.0543 12.5396 40.2588 12.845 40.4062 13.1766H30.831C30.2654 13.1766 29.8066 12.7068 29.8066 12.1268Z" fill="url(#paint2_linear_80_103)"/>
<path d="M40.6761 27.6174V51.942C40.6761 52.6364 40.1271 53.1987 39.45 53.1987H3.84956C3.17206 53.1987 2.62305 52.636 2.62305 51.942V27.6174H40.6761Z" fill="url(#paint3_linear_80_103)"/>
<path d="M7.80127 40.3579H17.1507V41.9151H7.80127V40.3579Z" fill="#C7D9E4"/>
<path d="M7.80127 34.9131H35.4979V36.4703H7.80127V34.9131Z" fill="#C7D9E4"/>
<path d="M7.80127 29.468H35.4979V31.0252H7.80127V29.468Z" fill="#C7D9E4"/>
<path d="M7.80127 23.9548H35.4979V25.512H7.80127V23.9548Z" fill="#C7D9E4"/>
<path d="M7.80127 18.5103H35.4979V20.0674H7.80127V18.5103Z" fill="#C7D9E4"/>
<path d="M7.80127 13.0649H26.7102V14.6221H7.80127V13.0649Z" fill="#C7D9E4"/>
<path d="M7.80127 7.62036H26.7102V9.17756H7.80127V7.62036Z" fill="#C7D9E4"/>
<path d="M16.3136 49.5867C16.1375 49.5867 15.9609 49.5244 15.8174 49.3972C15.4998 49.1161 15.4647 48.6245 15.739 48.2989C17.1933 46.5737 18.5314 45.0439 20.1812 43.7966C22.1419 42.3141 24.2379 41.522 26.2428 41.5058C26.3906 41.5046 26.737 41.5022 27.0393 41.7583C27.3976 42.0616 27.4268 42.5023 27.4378 42.6683L27.5131 43.797C27.5233 43.9513 27.6246 44.0187 27.6837 44.0454C27.7432 44.0716 27.8603 44.1015 27.9773 44.0042C28.3419 43.702 28.7952 43.326 29.3785 43.1555C29.9397 42.9915 30.5431 43.0711 30.9924 43.3692C31.3704 43.6196 31.6214 44.0098 31.7038 44.4732L33.9944 42.1691C34.294 41.8677 34.7748 41.8722 35.0688 42.1792C35.3624 42.4862 35.3581 42.979 35.0586 43.2803L32.6107 45.7427C32.1216 46.2351 31.6021 46.3373 31.0673 46.0457C30.6101 45.7973 30.2897 45.317 30.2105 44.7616C30.2014 44.6994 30.1844 44.6881 30.1679 44.6771C30.1001 44.6323 29.9468 44.6089 29.795 44.6533C29.5101 44.7365 29.2169 44.9797 28.9335 45.2148C28.4077 45.6506 27.6963 45.7496 27.0768 45.4729C26.4568 45.1958 26.043 44.5943 25.9973 43.9032L25.9421 43.0735C23.9474 43.1858 22.2109 44.1973 21.0833 45.05C19.5596 46.202 18.2823 47.6643 16.8887 49.3172C16.7385 49.4954 16.5269 49.5867 16.3136 49.5867Z" fill="#C7D9E4"/>
<path d="M2.62305 46.9377V51.9422C2.62305 52.6366 3.17206 53.1988 3.84956 53.1988H39.4496C40.1271 53.1988 40.6761 52.6366 40.6761 51.9422V46.9377H2.62305Z" fill="url(#paint4_linear_80_103)"/>
</g>
<path d="M50.9672 14.7574L48.6344 12.3665C48.3153 12.0395 48.2021 11.6248 48.382 11.4403L51.862 7.87364C52.042 7.68921 52.4469 7.80494 52.766 8.13198L55.0988 10.5229C55.4179 10.8499 55.5308 11.2649 55.3508 11.4494L51.8708 15.0161C51.6909 15.2005 51.2863 15.0844 50.9672 14.7574Z" fill="#F22E2E"/>
<path d="M17.365 46.7251C17.0836 46.4368 17.0716 45.9816 17.3378 45.7088L18.6688 44.3447C18.9353 44.0715 19.3794 44.0838 19.6607 44.3721C19.942 44.6605 19.954 45.1156 19.6875 45.3888L18.3565 46.7529C18.0904 47.0257 17.6463 47.0134 17.365 46.7251Z" fill="#5B6870"/>
<path d="M21.423 45.8762L20.523 46.0048C19.1233 46.2045 17.8721 44.9221 18.0669 43.4875L18.1924 42.5652C18.2959 41.803 18.6314 41.1067 19.1523 40.5728L19.8486 39.8591L24.0633 44.1788L23.367 44.8924C22.8461 45.4263 22.1666 45.7702 21.423 45.8762Z" fill="#F22E2E"/>
<path d="M23.6694 44.5823L19.4548 40.2626L48.8021 10.1843C49.0194 9.96153 49.382 9.97156 49.6114 10.2067L52.9949 13.6745C53.2243 13.9096 53.2341 14.2812 53.0167 14.5039L23.6694 44.5823Z" fill="url(#paint5_linear_80_103)"/>
<path d="M48.0562 11.7739L51.545 15.3497L49.066 17.8904L45.5772 14.3146L48.0562 11.7739Z" fill="#B2C4D0"/>
</g>
<defs>
<filter id="filter0_d_80_103" x="0.623047" y="0.036377" width="42.0532" height="55.1624" filterUnits="userSpaceOnUse" color-interpolation-filters="sRGB">
<feFlood flood-opacity="0" result="BackgroundImageFix"/>
<feColorMatrix in="SourceAlpha" type="matrix" values="0 0 0 0 0 0 0 0 0 0 0 0 0 0 0 0 0 0 127 0" result="hardAlpha"/>
<feOffset/>
<feGaussianBlur stdDeviation="1"/>
<feComposite in2="hardAlpha" operator="out"/>
<feColorMatrix type="matrix" values="0 0 0 0 0.780392 0 0 0 0 0.85098 0 0 0 0 0.894118 0 0 0 1 0"/>
<feBlend mode="normal" in2="BackgroundImageFix" result="effect1_dropShadow_80_103"/>
<feBlend mode="normal" in="SourceGraphic" in2="effect1_dropShadow_80_103" result="shape"/>
</filter>
<linearGradient id="paint0_linear_80_103" x1="16.0854" y1="11.7864" x2="25.6288" y2="46.549" gradientUnits="userSpaceOnUse">
<stop stop-color="#FFFCF8"/>
<stop offset="0.1875" stop-color="#FAF8F6"/>
<stop offset="0.4041" stop-color="#ECEEF2"/>
<stop offset="0.6353" stop-color="#D5DCEA"/>
<stop offset="0.875" stop-color="#B5C4DF"/>
<stop offset="1" stop-color="#A1B5D8"/>
</linearGradient>
<linearGradient id="paint1_linear_80_103" x1="38.1167" y1="18.7609" x2="29.2726" y2="2.01633" gradientUnits="userSpaceOnUse">
<stop stop-color="#A1B5D8" stop-opacity="0"/>
<stop offset="0.2632" stop-color="#8EA0BA" stop-opacity="0.262745"/>
<stop offset="0.5306" stop-color="#808FA3" stop-opacity="0.529412"/>
<stop offset="0.7822" stop-color="#778595" stop-opacity="0.780392"/>
<stop offset="1" stop-color="#748290"/>
</linearGradient>
<linearGradient id="paint2_linear_80_103" x1="31.1786" y1="11.9949" x2="37.6815" y2="5.29646" gradientUnits="userSpaceOnUse">
<stop stop-color="#FFFCF8"/>
<stop offset="0.1875" stop-color="#FAF8F6"/>
<stop offset="0.4041" stop-color="#ECEEF2"/>
<stop offset="0.6353" stop-color="#D5DCEA"/>
<stop offset="0.875" stop-color="#B5C4DF"/>
<stop offset="1" stop-color="#A1B5D8"/>
</linearGradient>
<linearGradient id="paint3_linear_80_103" x1="19.5679" y1="35.7521" x2="34.8887" y2="65.0324" gradientUnits="userSpaceOnUse">
<stop stop-color="#FFFCF8"/>
<stop offset="0.1875" stop-color="#FAF8F6"/>
<stop offset="0.4041" stop-color="#ECEEF2"/>
<stop offset="0.6353" stop-color="#D5DCEA"/>
<stop offset="0.875" stop-color="#B5C4DF"/>
<stop offset="1" stop-color="#A1B5D8"/>
</linearGradient>
<linearGradient id="paint4_linear_80_103" x1="21.6497" y1="50.9626" x2="21.6497" y2="55.2173" gradientUnits="userSpaceOnUse">
<stop stop-color="#A1B5D8" stop-opacity="0"/>
<stop offset="0.2632" stop-color="#8EA0BA" stop-opacity="0.262745"/>
<stop offset="0.5306" stop-color="#808FA3" stop-opacity="0.529412"/>
<stop offset="0.7822" stop-color="#778595" stop-opacity="0.780392"/>
<stop offset="1" stop-color="#748290"/>
</linearGradient>
<linearGradient id="paint5_linear_80_103" x1="34.3253" y1="25.0219" x2="38.5851" y2="29.1781" gradientUnits="userSpaceOnUse">
<stop stop-color="#FFD00D"/>
<stop offset="0.2378" stop-color="#FFCB0E"/>
<stop offset="0.5353" stop-color="#FFBB11"/>
<stop offset="0.8632" stop-color="#FFA215"/>
<stop offset="1" stop-color="#FF9517"/>
</linearGradient>
<clipPath id="clip0_80_103">
<rect width="56" height="56" fill="white"/>
</clipPath>
</defs>
</svg>
