<svg width="59" height="35" viewBox="0 0 59 35" fill="none" xmlns="http://www.w3.org/2000/svg">
<g clip-path="url(#clip0_80_161)">
<path d="M52.9745 1.44106C54.9642 1.58721 56.7349 5.53208 57.3768 7.27653C57.9033 8.70729 59.9065 14.1064 58.5186 16.1325C57.7568 17.2449 53.0656 18.2945 50.883 19.7757C49.1385 20.959 47.0271 23.4855 47.0271 23.4855L41.6791 20.2278L26.5175 8.67396L26.0938 5.06285L33.0428 0.878662C33.0428 0.878662 37.0006 3.24747 42.1849 3.59704C48.3537 4.012 51.0619 1.30088 52.9745 1.44106Z" fill="#F9CF57"/>
<path d="M27.7261 7.43324L28.9833 6.61743C28.9833 6.61743 29.5927 7.67 30.6196 8.40589C31.4476 8.99948 33.7001 10.7879 36.7005 10.7756C39.9555 10.7614 41.9317 10.2491 41.9317 10.2491C41.9317 10.2491 41.3673 10.5285 41.6761 11.2807C41.9312 11.9016 42.895 11.8089 42.895 11.8089C42.895 11.8089 41.4867 12.967 40.802 14.1367C40.1669 15.2213 39.9717 16.2781 40.1277 16.8268C40.3458 17.5922 47.4 23.5042 47.4 23.5042L47.0182 23.9837L39.2122 17.1576L30.3297 10.3781L27.7265 7.43324H27.7261Z" fill="#F7AD20"/>
<path d="M37.0407 11.1458C35.3877 11.1009 34.0133 10.7321 32.9694 10.3137C30.7439 9.42268 29.53 8.15302 29.4795 8.09918C29.3695 7.98251 29.3799 7.80302 29.5025 7.69918C29.6255 7.59448 29.7644 7.64704 29.8739 7.76371C29.896 7.78636 31.1248 8.96627 33.2272 9.8026C36.0499 10.9248 39.1111 10.8569 42.3265 9.59961C42.4788 9.54063 42.6533 9.60901 42.7164 9.75388C42.7795 9.89832 42.7069 10.0637 42.5541 10.1231C40.4882 10.9304 38.6346 11.1889 37.0398 11.1453L37.0407 11.1458Z" fill="#F7AD20"/>
<path d="M39.6635 16.9154C39.6581 16.9154 39.6531 16.9149 39.6481 16.9145C39.4836 16.9021 39.3605 16.7654 39.3741 16.6098C39.3853 16.4696 39.6964 13.1573 42.7702 11.7671C42.9185 11.7 43.097 11.7594 43.1677 11.9008C43.239 12.0419 43.1759 12.2102 43.0267 12.2782C40.2612 13.5295 39.9718 16.6235 39.9691 16.6547C39.9565 16.806 39.8212 16.9196 39.6635 16.9158V16.9154Z" fill="#F7AD20"/>
<path d="M58.5193 16.1325C59.9067 14.106 57.9035 8.70727 57.3775 7.2765C56.7356 5.53206 54.9645 1.58718 52.9752 1.44103C52.6777 1.41924 52.3608 1.46667 52.0146 1.56026L52.0047 1.56283C52.0047 1.56283 52.0007 1.56411 51.998 1.56454C52.0133 1.56197 53.1939 1.33548 53.9678 2.08462C55.1534 3.23206 56.5178 6.2953 57.432 9.79787C58.2578 12.959 56.947 14.9492 56.2848 15.6201C54.9749 16.947 51.709 18.0769 50.5122 18.7735C49.4669 19.3825 48.6276 19.9786 47.9361 20.6154C47.3329 21.1697 47.0043 21.7761 46.3462 21.9351C45.6876 22.0945 44.8735 21.3483 44.8735 21.3483L45.0466 22.1791L45.1228 22.3248L47.0278 23.485C47.0278 23.485 49.1392 20.9586 50.8837 19.7752C53.0667 18.2945 57.7575 17.2449 58.5193 16.1321V16.1325Z" fill="#F7AD20"/>
<path opacity="0.5" d="M9.71197 0.415471C8.63914 0.375728 6.18424 2.08727 3.6153 5.65522C0.756062 9.62573 -0.271244 12.5838 0.0596219 12.8873C1.04095 13.7881 4.91397 15.7928 7.28367 18.1121C9.42258 20.2048 9.03672 21.4877 10.6735 22.9249C12.1074 24.1839 19.8656 29.1262 22.3592 30.4659C24.6748 31.7091 26.4942 32.4663 26.4942 32.4663L41.8167 18.9561C41.8167 18.9561 37.0345 14.9074 32.1464 11.0454C27.2587 7.18342 24.6591 2.83214 24.6591 2.83214C24.6591 2.83214 20.8902 4.73428 15.9448 3.39368C12.3648 2.42316 10.856 0.458206 9.71197 0.415471Z" fill="#FFC619"/>
<path d="M9.71197 0.415471C8.63914 0.375728 6.18424 2.08727 3.6153 5.65522C0.756062 9.62573 -0.271244 12.5838 0.0596219 12.8873C1.04095 13.7881 4.91397 15.7928 7.28367 18.1121C9.42258 20.2048 9.03672 21.4877 10.6735 22.9249C12.1074 24.1839 19.8656 29.1262 22.3592 30.4659C24.6748 31.7091 26.4942 32.4663 26.4942 32.4663L41.8167 18.9561C41.8167 18.9561 37.0345 14.9074 32.1464 11.0454C27.2587 7.18342 24.6591 2.83214 24.6591 2.83214C24.6591 2.83214 20.8902 4.73428 15.9448 3.39368C12.3648 2.42316 10.856 0.458206 9.71197 0.415471Z" fill="#F9CF57"/>
<path d="M24.0513 31.3367C24.0513 31.3367 27.9351 33.2949 29.7233 33.9466C31.7184 34.6735 32.9441 34.9171 33.801 34.9782C34.6079 35.0355 36.3321 35.0466 36.7432 34.1021C37.2854 32.8573 36.662 32.1615 35.9426 31.8675C35.0681 31.5102 32.0322 30.3773 29.593 29.1192C27.6939 28.1393 25.1615 26.5291 25.1615 26.5291L24.0513 31.3367Z" fill="#FFC619"/>
<path d="M24.2759 25.9855C24.2759 25.9855 28.6632 29.1026 33.0393 30.927C35.1534 31.8086 36.3989 32.2843 37.314 32.433C38.1767 32.5731 40.0303 32.7526 40.5748 31.7761C41.2929 30.4894 40.6974 29.68 39.955 29.2941C39.0526 28.8244 35.9085 27.3108 33.4202 25.7197C31.4833 24.4817 28.5731 22.2078 28.5731 22.2078L24.2759 25.9855Z" fill="#FFC619"/>
<path opacity="0.5" d="M28.0757 22.171C28.0757 22.171 32.3264 25.5466 36.3726 27.6227C38.456 28.6919 39.7123 29.2304 40.6382 29.4424C41.5109 29.6415 43.2775 29.9488 44.023 28.9821C44.9534 27.7774 44.2998 26.8454 43.5687 26.4018C42.6788 25.8625 39.5712 24.1086 37.1398 22.318C35.247 20.9244 32.7799 18.7334 32.7799 18.7334L28.0757 22.1706V22.171Z" fill="#FFC619"/>
<path d="M35.0043 34.4978C31.0262 34.5132 24.2849 30.6183 23.7034 30.2781C23.1224 29.9375 23.1765 29.1837 22.2988 28.5755C21.6078 28.0969 20.6964 28.1367 20.5431 27.9794C20.3889 27.8213 20.5589 26.1623 19.6474 25.4764C18.7359 24.7905 17.9998 25.2213 17.7014 24.9811C17.3368 24.6884 17.2795 23.5003 16.478 22.8409C15.5639 22.0896 14.4342 22.4841 14.1904 22.2888C13.9465 22.0931 14.0222 20.6849 12.6447 19.9217C11.6426 19.3666 10.5869 20.0431 10.0162 19.779C9.57314 19.5751 8.58505 17.7046 7.2999 16.3593C6.01475 15.0144 2.63983 14.4443 2.29184 11.9567C1.94384 9.46913 3.4377 7.61529 4.80894 5.49264C5.85788 3.86871 8.19829 1.3076 8.80818 0.648193C7.54467 1.22554 5.61447 2.87811 3.61485 5.65503C0.756063 9.62554 -0.271243 12.5837 0.0596226 12.8871C1.04095 13.7879 4.91397 15.7926 7.28367 18.1119C9.42258 20.2046 9.03672 21.4875 10.6735 22.9247C12.1074 24.1837 19.8656 29.126 22.3592 30.4657C22.9655 30.7914 23.5371 31.0828 24.051 31.3371C24.051 31.3371 27.9348 33.2952 29.723 33.9469C31.7181 34.6738 32.9438 34.9174 33.8007 34.9785C34.6076 35.0358 36.3318 35.0469 36.7429 34.1025C36.9101 33.7191 36.966 33.3879 36.9435 33.1042C36.943 33.1072 36.6838 34.4909 35.0038 34.4982L35.0043 34.4978Z" fill="#F7AD20"/>
<path d="M40.5744 31.7761C40.7123 31.5296 40.8011 31.3009 40.8502 31.0894C40.8286 31.1732 40.6316 31.8304 39.7274 32.071C38.7988 32.318 37.2698 31.839 36.0739 31.4407C34.8784 31.042 30.0664 28.7988 30.0664 28.7988L24.3331 25.9287L24.2754 25.986C24.2754 25.986 28.6627 29.1031 33.0388 30.9274C35.1529 31.8091 36.3984 32.2847 37.3135 32.4334C38.1763 32.5736 40.0298 32.7531 40.5744 31.7766V31.7761Z" fill="#F7AD20"/>
<path d="M28.1094 22.43C28.1094 22.43 32.3412 25.7347 36.6244 27.7475C38.6939 28.7197 39.9151 29.2492 40.822 29.4376C41.6767 29.615 43.5199 29.8753 44.1113 28.9231C44.8907 27.6688 44.3349 26.8355 43.6118 26.4171C42.7342 25.9086 39.6653 24.2599 37.2569 22.562C35.3817 21.2406 32.5846 18.8428 32.5846 18.8428L28.1094 22.43Z" fill="#FFC619"/>
<path d="M44.1113 28.923C44.2605 28.6829 44.3601 28.4589 44.4201 28.2491C44.3944 28.3316 44.1654 28.9799 43.2503 29.1803C42.3113 29.3867 40.8067 28.8418 39.6315 28.3918C38.4564 27.9418 33.758 25.4914 33.758 25.4914L28.1698 22.3748L28.1094 22.4295C28.1094 22.4295 32.3412 25.7342 36.6244 27.747C38.6939 28.7192 39.9151 29.2487 40.822 29.4371C41.6767 29.6145 43.5199 29.8748 44.1113 28.9226V28.923Z" fill="#F7AD20"/>
<path d="M21.1006 34.2146C21.1006 34.2146 22.2352 34.3748 24.2871 33.8287C25.6142 33.4757 26.7514 32.6154 26.7514 32.6154L23.6028 30.8329L22.5922 30.5842L22.2284 32.7436L21.1006 34.215V34.2146Z" fill="#FFC619"/>
<path d="M28.3791 7.57263C25.99 5.02519 24.7174 2.92861 24.662 2.83545L24.6575 2.83374C24.6205 2.85169 24.1391 3.08801 23.3187 3.33118C22.5628 3.86579 21.0369 4.96964 20.5447 5.50981C20.0497 6.05383 19.1121 7.45083 19.9523 8.75853C20.7921 10.0666 22.3536 10.0017 23.7487 9.79955C26.219 9.44143 27.9116 8.00938 28.3791 7.57263Z" fill="#F7AD20"/>
<path d="M30.1315 5.7654C30.1315 5.7654 28.3879 7.26583 26.9215 8.07096C25.7951 8.68933 22.6735 10.2329 20.9065 8.98164C19.0813 7.68848 20.9754 5.72096 21.5542 5.26968C22.9056 4.21455 24.2823 3.15429 24.9147 2.6231C25.5463 2.09147 27.8578 -0.0273322 29.7078 1.82472e-05C31.514 0.0269413 33.043 0.878651 33.043 0.878651L30.131 5.7654H30.1315Z" fill="#FFC619"/>
<path d="M20.1323 7.59156C20.1323 7.59156 21.3589 7.99668 22.2478 7.4125C23.1372 6.82916 23.4 3.8313 23.4 3.8313C22.8324 4.27489 22.1901 4.77275 21.5536 5.26976C21.1619 5.57532 20.1675 6.57617 20.1323 7.59156Z" fill="url(#paint0_linear_80_161)"/>
<path d="M9.13825 22.6465C9.31405 22.1021 10.5086 19.9397 12.3946 20.776C14.2374 21.5935 13.2092 23.8884 12.8562 24.4469C12.5551 24.923 11.5778 26.7841 9.70937 25.9901C8.18036 25.3397 8.94622 23.2431 9.1378 22.6461L9.13825 22.6465Z" fill="#FFC619"/>
<path d="M12.0854 25.2531C12.5447 24.4744 13.9863 22.0924 15.852 23.3723C17.8399 24.7364 15.8665 27.433 15.5676 27.8377C15.2692 28.2424 13.778 30.0005 12.1652 28.7834C10.7534 27.7184 11.7099 25.8881 12.0849 25.2526L12.0854 25.2531Z" fill="#FFC619"/>
<path d="M18.8541 26.1927C17.2548 25.1457 15.847 27.2316 15.5351 27.6717C15.2669 28.0491 13.6978 29.9704 15.3169 31.1944C16.6611 32.2119 18.4417 30.7722 18.8879 30.0286C19.3333 29.2854 20.4133 27.2123 18.8546 26.1922L18.8541 26.1927Z" fill="#FFC619"/>
<path d="M20.7068 28.7329C19.6605 28.7021 18.3163 29.691 18.5404 31.8367C18.6945 33.3166 19.931 34.3175 21.4469 34.2081C23.3848 34.0688 22.8357 31.1923 22.6424 30.4876C22.5166 30.0295 22.0316 28.7718 20.7068 28.7329Z" fill="#FFC619"/>
<path d="M9.81864 22.279C9.79971 21.9952 10.7468 20.3285 12.2442 21.1144C13.899 21.9828 12.663 23.6221 12.3718 23.6939C12.0802 23.7657 11.4811 23.5187 10.9672 23.2217C10.4529 22.9243 9.83847 22.5623 9.81909 22.279H9.81864Z" fill="url(#paint1_linear_80_161)"/>
<path d="M13.1698 24.7922C13.118 24.561 13.425 24.0913 13.727 23.8576C14.1029 23.5666 14.8471 23.1516 15.6558 23.6913C16.5952 24.3187 16.3121 25.2319 16.1499 25.67C15.9871 26.1084 15.5287 26.3375 15.2344 26.2999C14.94 26.2623 13.2221 25.0238 13.1698 24.7922Z" fill="url(#paint2_linear_80_161)"/>
<path d="M16.4278 27.3718C16.3521 27.1594 16.6135 26.7867 16.8817 26.5696C17.2311 26.2872 17.9983 25.9346 18.6519 26.2931C19.5332 26.7773 19.4813 27.6363 19.3795 28.0649C19.2776 28.4936 18.9652 28.7299 18.6844 28.7256C18.4031 28.7209 16.504 27.5842 16.4283 27.3718H16.4278Z" fill="url(#paint3_linear_80_161)"/>
<path d="M19.3947 31.6052C19.1653 31.5022 19.0422 31.0005 19.0652 30.6419C19.095 30.174 19.3803 29.3471 20.1615 29.1359C21.2154 28.85 21.878 29.5291 22.1521 29.9248C22.4262 30.3201 22.3816 30.7218 22.1719 30.9291C21.8916 31.2065 19.6251 31.7086 19.3947 31.6056V31.6052Z" fill="url(#paint4_linear_80_161)"/>
<path opacity="0.5" d="M12.1998 25.3779C11.9298 25.4847 10.7461 25.9129 9.92612 25.5394C8.95155 25.0954 8.76133 23.0715 9.79765 21.7561C10.843 20.4292 12.0623 20.6599 12.0916 20.6659C10.3814 20.1723 9.30496 22.1326 9.13862 22.6467C8.94659 23.2437 8.18073 25.3403 9.7102 25.9907C10.8624 26.4809 11.6751 25.9608 12.1998 25.3779Z" fill="#F7AD20"/>
<path opacity="0.5" d="M15.9709 23.4595C15.9326 23.43 15.8934 23.401 15.8519 23.3723C13.9862 22.0924 12.5446 24.474 12.0853 25.2531C11.7098 25.8886 10.7532 27.7189 12.1655 28.7839C13.031 29.4369 13.8613 29.2326 14.4915 28.8411C14.4915 28.8411 13.3474 29.2057 12.4594 28.5322C11.9212 28.1236 11.8802 27.4664 11.8784 26.7463C11.8766 25.9792 12.8042 24.039 14.1349 23.3501C14.9576 22.9232 15.9714 23.4599 15.9714 23.4599L15.9709 23.4595Z" fill="#F7AD20"/>
<path opacity="0.5" d="M18.8045 26.1615C17.2259 25.1888 15.8439 27.2363 15.5351 27.6717C15.2669 28.0491 13.6978 29.9704 15.3169 31.1944C16.0598 31.7563 16.9343 31.5679 17.6447 31.1619C17.6447 31.1619 16.1815 31.5303 15.3882 30.4764C14.5263 29.3316 16.1968 26.5739 17.4563 26.0952C18.1194 25.8427 18.8045 26.161 18.8045 26.161V26.1615Z" fill="#F7AD20"/>
<path d="M25.9546 32.1009C25.9546 32.1009 25.2473 33.0312 23.5155 33.6188C21.7922 34.203 19.4315 33.6492 18.9127 32.4962C18.6224 31.8513 18.6936 30.6842 19.0276 29.9205C19.3215 29.2483 19.9048 28.8992 19.9048 28.8992H19.9026C19.0903 29.2624 18.3713 30.2218 18.5399 31.8363C18.6823 33.2017 19.7461 34.159 21.1012 34.2133H21.1007C21.1007 34.2133 22.2353 34.374 24.2872 33.8278C25.6143 33.4748 26.7516 32.6146 26.7516 32.6146L26.1475 32.212L25.9546 32.1005V32.1009Z" fill="#F7AD20"/>
<path d="M47.6265 24.1561C47.5472 23.9821 47.434 23.8279 47.3011 23.6937C47.2028 23.5894 47.0951 23.4971 46.9842 23.4163C46.1457 22.8082 43.8324 20.6488 41.5078 18.6941C39.7146 17.1864 36.9126 14.9167 36.9126 14.9167L31.7373 18.5569C31.7373 18.5569 35.7532 22.0954 39.9017 24.3475C40.2785 24.5526 40.6274 24.7394 40.9497 24.9103C42.0149 25.5215 42.7555 25.8492 43.3645 26.0672C43.5885 26.1531 43.7936 26.221 43.9852 26.2727C44.0109 26.2796 44.0375 26.2864 44.0645 26.2932C44.7592 26.4928 45.7923 26.7061 46.5749 26.4304C46.8728 26.3411 47.1284 26.189 47.3015 25.9454C47.3457 25.883 47.3858 25.821 47.4232 25.7608C47.8573 25.1548 47.8442 24.6009 47.627 24.1552L47.6265 24.1561Z" fill="#FFC619"/>
<path d="M47.3015 25.9461C47.4656 25.7149 47.5791 25.4961 47.6517 25.2905C47.6206 25.3717 47.3515 26.0051 46.4261 26.1538C45.475 26.3072 44.0077 25.6781 42.8627 25.1619C41.7187 24.6461 37.1826 21.9337 37.1826 21.9337L31.8008 18.5063L31.7368 18.5576C31.7368 18.5576 35.7527 22.0961 39.9012 24.3482C41.9057 25.4363 43.0913 26.0337 43.9847 26.2734C44.8272 26.4987 46.6501 26.8628 47.301 25.9465L47.3015 25.9461Z" fill="#F7AD20"/>
<path d="M22.3672 29.8051C22.3672 29.8051 22.6453 30.7068 22.6448 31.323C22.6448 31.9393 22.4325 32.5683 22.4325 32.5683C22.4325 32.5683 23.3674 31.8089 23.4251 30.8277C23.4621 30.1991 23.1889 29.6794 23.1889 29.6794L22.3667 29.8051H22.3672Z" fill="#F7AD20"/>
<path d="M32.2765 11.3745C34.9397 13.592 35.1583 15.1279 34.2924 16.2582C33.1726 17.7211 31.4349 17.4236 30.9576 18.1698C30.5343 18.8305 31.0567 19.3728 30.1854 20.6236C29.2257 22.001 28.0952 21.4967 27.6967 22.1574C27.3473 22.7373 28.0154 23.3617 26.9254 24.5638C25.5564 26.0736 24.2929 25.3847 23.9886 25.7907C23.6528 26.239 24.4304 26.7343 23.8521 27.8317C23.5284 28.4454 22.7693 28.7279 22.6323 28.6459C22.3961 28.504 22.1599 28.3035 21.724 28.1386C21.3368 27.9916 20.7909 27.9852 20.6538 27.8548C20.593 27.7976 20.579 26.9232 20.3676 26.286C20.039 25.2967 19.522 25.1715 19.2479 25.0647C18.7029 24.8535 18.1404 25.0647 17.8099 24.8706C17.4804 24.6758 17.4741 23.6253 16.5036 22.6877C15.8883 22.0933 14.6676 22.3775 14.357 22.204C14.1456 22.0856 13.9216 20.5403 13.0629 19.9151C11.9824 19.1283 10.7482 19.8441 10.0765 19.4788C9.40442 19.1134 8.64532 17.4967 7.17716 16.0223C5.96053 14.8001 3.35508 14.6933 2.56037 12.2587C1.32842 8.48388 10.8415 1.38175 12.6896 2.31337C14.5373 3.24542 14.6893 3.54713 16.9206 3.79969C19.2105 4.05952 20.8387 4.20952 20.7535 4.55525C20.5795 5.26251 17.8446 7.85397 20.6295 9.69884C23.1926 11.3976 27.7467 8.38944 28.2949 8.25952C28.4936 8.21252 30.4924 9.8873 32.277 11.3741L32.2765 11.3745Z" fill="url(#paint5_linear_80_161)"/>
<path d="M12.5682 20.9594C11.0748 20.1808 9.89876 21.6757 9.63731 22.1543C9.29923 22.7723 8.71143 24.8569 10.0015 25.4543C11.6257 26.206 12.5308 24.5342 12.6796 24.2424C12.8292 23.95 14.1707 21.7953 12.5678 20.9599L12.5682 20.9594Z" fill="url(#paint6_linear_80_161)"/>
<path d="M15.9774 23.8659C14.6246 22.8198 13.2182 24.2954 12.8824 24.7817C12.4474 25.4112 11.5283 27.6061 12.7098 28.4279C14.1964 29.4616 15.363 27.7582 15.5582 27.4595C15.7534 27.1604 17.4298 24.9881 15.9774 23.8659Z" fill="url(#paint7_linear_80_161)"/>
<path d="M18.9507 26.5162C17.7007 25.5508 16.4025 26.9132 16.0924 27.3619C15.6908 27.944 14.842 29.9709 15.9328 30.7295C17.3059 31.6854 18.3832 30.1111 18.5635 29.8354C18.7438 29.5594 20.2922 27.5534 18.9507 26.5162Z" fill="url(#paint8_linear_80_161)"/>
<path d="M21.0034 28.9683C19.4477 28.8563 18.9677 30.4503 18.9131 30.9213C18.841 31.5298 19.0727 33.3943 20.3899 33.4315C22.0478 33.4785 22.2335 31.8349 22.2583 31.5507C22.2835 31.2661 22.673 29.0892 21.0034 28.9683Z" fill="url(#paint9_linear_80_161)"/>
<path d="M48.556 2.83507C46.9526 3.35515 44.9057 3.78037 42.1848 3.59703C37.0005 3.24746 33.0427 0.878659 33.0427 0.878659C33.0427 0.878659 31.5137 0.0269495 29.7075 2.64726e-05C27.8571 -0.0277513 25.546 2.09105 24.9136 2.62268C24.5791 2.90345 24.0364 3.3325 23.3994 3.8308C23.3994 3.8308 24.3361 3.19917 25.4941 2.30772C26.782 1.31669 27.7525 0.0483171 30.3656 0.237206C32.9792 0.425667 32.761 2.12481 36.3077 3.3278C39.8543 4.5308 42.4675 4.56627 44.6947 4.10644C46.9224 3.64618 48.5556 2.83464 48.5556 2.83464L48.556 2.83507Z" fill="#FFBB19"/>
<path d="M20.5794 8.44868C19.8577 7.71706 20.5542 6.56065 21.1762 5.80552C21.7987 5.05082 23.8304 3.97689 24.9095 3.25723C26.5025 2.19569 27.7696 0.650391 29.7134 0.661929C32.6249 0.679451 32.7615 2.76022 38.0941 4.0239C42.6487 5.10381 44.8696 4.27176 44.8696 4.27176L42.518 9.31578C42.518 9.31578 38.5904 11.3106 34.4419 10.053C30.1425 8.74954 29.4889 6.62603 29.1657 6.51407C28.6707 6.3427 27.4234 8.07133 24.3375 9.01492C22.0624 9.71065 21.3011 9.17988 20.5794 8.44911V8.44868Z" fill="url(#paint10_linear_80_161)"/>
<path d="M43.7501 12.2826C43.0324 12.4693 41.8208 12.8138 41.0247 14.1937C40.4901 15.1198 40.0042 16.0343 40.3278 16.8599C40.4851 17.2625 41.6882 18.3296 42.9283 19.4082C44.2342 20.5433 45.3174 21.7321 46.0517 21.8146C46.8933 21.9095 47.3833 20.6108 49.3369 19.3492C51.0007 18.274 55.0739 16.9313 56.268 15.3022C57.8858 13.0963 57.6342 10.3877 57.0397 10.0292C55.8077 9.28599 51.5763 10.4185 49.3865 10.9963C47.1971 11.5745 44.7449 12.0227 43.7501 12.2821V12.2826Z" fill="url(#paint11_linear_80_161)"/>
<path d="M46.9977 23.6316C47.6508 24.2158 47.6508 24.8175 47.5201 25.2414C47.3898 25.6666 46.5122 26.4452 44.8326 25.8431C43.0079 25.1897 40.4466 23.7546 38.3929 22.4811C35.0135 20.3837 31.9401 18.3957 32.1209 18.1277C32.4202 17.6854 33.6891 17.7025 34.4915 16.6824C35.636 15.2277 34.5104 13.8457 34.7529 13.6333C34.9954 13.4209 39.6433 17.3491 41.7155 19.1012C43.7873 20.8529 46.3445 23.0474 46.9981 23.6316H46.9977Z" fill="url(#paint12_linear_80_161)"/>
<path d="M43.6569 26.6693C44.3254 27.1522 44.4372 27.7236 44.3096 28.1193C44.0671 28.8701 43.3409 29.327 41.7154 28.9236C39.9502 28.4847 37.5156 27.2424 35.649 26.2689C32.3371 24.5419 28.4529 22.5176 28.593 22.2518C28.8256 21.8125 29.6014 22.0569 30.4971 20.8894C31.551 19.5159 30.9096 18.6851 31.1129 18.4646C31.317 18.2445 34.0812 21.0483 37.5715 23.2248C39.7415 24.5783 42.9884 26.1868 43.6569 26.6697V26.6693Z" fill="url(#paint13_linear_80_161)"/>
<path d="M39.867 29.436C40.563 29.8826 40.8488 30.4847 40.7447 30.8869C40.5473 31.6493 39.89 32.2296 38.2434 31.9134C36.4547 31.5698 33.907 30.4416 31.9898 29.5595C28.7267 28.0574 24.897 26.1621 24.9718 25.9317C25.1241 25.4621 25.8702 26.007 27.0809 24.6933C28.1078 23.5779 27.6372 22.8005 27.8279 22.5693C28.0185 22.339 30.1574 24.4446 33.7812 26.4155C37.8701 28.6394 39.1715 28.9894 39.867 29.4356V29.436Z" fill="url(#paint14_linear_80_161)"/>
<path d="M24.2436 26.2859C24.3928 26.1974 28.406 28.7987 30.3754 29.7718C32.3448 30.7453 35.5363 32.0547 35.919 32.1432C36.3017 32.2316 36.7777 32.559 36.8151 33.0363C36.8457 33.4299 36.4135 34.382 35.0792 34.3996C32.7171 34.4308 29.573 33.0457 28.0048 32.3731C26.597 31.7692 23.9478 30.3107 23.5999 30.0906C23.5029 30.0291 23.3542 29.7385 23.1892 29.4444C23.0215 29.1453 22.839 28.8436 22.8624 28.7812C22.9093 28.6573 23.5345 28.6752 23.9821 27.8966C24.3806 27.2051 24.0944 26.3744 24.2436 26.2863V26.2859Z" fill="url(#paint15_linear_80_161)"/>
</g>
<defs>
<linearGradient id="paint0_linear_80_161" x1="20.1891" y1="5.72283" x2="23.3402" y2="5.818" gradientUnits="userSpaceOnUse">
<stop stop-color="#FCE053"/>
<stop offset="1" stop-color="#FCE053"/>
</linearGradient>
<linearGradient id="paint1_linear_80_161" x1="9.82127" y1="22.2494" x2="13.0909" y2="22.3481" gradientUnits="userSpaceOnUse">
<stop stop-color="#FCE053"/>
<stop offset="1" stop-color="#FCE053"/>
</linearGradient>
<linearGradient id="paint2_linear_80_161" x1="13.1636" y1="24.8133" x2="16.3215" y2="24.9087" gradientUnits="userSpaceOnUse">
<stop stop-color="#FCE053"/>
<stop offset="1" stop-color="#FCE053"/>
</linearGradient>
<linearGradient id="paint3_linear_80_161" x1="16.4414" y1="27.5907" x2="19.4147" y2="27.3158" gradientUnits="userSpaceOnUse">
<stop stop-color="#FCE053"/>
<stop offset="1" stop-color="#FCE053"/>
</linearGradient>
<linearGradient id="paint4_linear_80_161" x1="19.5702" y1="31.7422" x2="21.4727" y2="29.2606" gradientUnits="userSpaceOnUse">
<stop stop-color="#FCE053"/>
<stop offset="1" stop-color="#FCE053"/>
</linearGradient>
<linearGradient id="paint5_linear_80_161" x1="2.34508" y1="15.0323" x2="34.7176" y2="16.0099" gradientUnits="userSpaceOnUse">
<stop stop-color="#FCE053"/>
<stop offset="1" stop-color="#FCE053"/>
</linearGradient>
<linearGradient id="paint6_linear_80_161" x1="12.1211" y1="21.5928" x2="10.2412" y2="25.0955" gradientUnits="userSpaceOnUse">
<stop stop-color="#FCE053"/>
<stop offset="1" stop-color="#FCE053"/>
</linearGradient>
<linearGradient id="paint7_linear_80_161" x1="15.498" y1="24.549" x2="12.9618" y2="28.034" gradientUnits="userSpaceOnUse">
<stop stop-color="#FCE053"/>
<stop offset="1" stop-color="#FCE053"/>
</linearGradient>
<linearGradient id="paint8_linear_80_161" x1="18.5077" y1="27.1473" x2="16.1652" y2="30.3656" gradientUnits="userSpaceOnUse">
<stop stop-color="#FCE053"/>
<stop offset="1" stop-color="#FCE053"/>
</linearGradient>
<linearGradient id="paint9_linear_80_161" x1="20.7477" y1="29.702" x2="20.584" y2="33.1433" gradientUnits="userSpaceOnUse">
<stop stop-color="#FCE053"/>
<stop offset="1" stop-color="#FCE053"/>
</linearGradient>
<linearGradient id="paint10_linear_80_161" x1="20.2724" y1="5.56535" x2="44.8696" y2="5.56535" gradientUnits="userSpaceOnUse">
<stop stop-color="#FCE053"/>
<stop offset="1" stop-color="#FCE053"/>
</linearGradient>
<linearGradient id="paint11_linear_80_161" x1="40.2237" y1="15.8022" x2="57.4954" y2="15.8022" gradientUnits="userSpaceOnUse">
<stop stop-color="#FCE053"/>
<stop offset="1" stop-color="#FCE053"/>
</linearGradient>
<linearGradient id="paint12_linear_80_161" x1="32.1128" y1="19.8444" x2="47.5882" y2="19.8444" gradientUnits="userSpaceOnUse">
<stop stop-color="#FCE053"/>
<stop offset="1" stop-color="#FCE053"/>
</linearGradient>
<linearGradient id="paint13_linear_80_161" x1="28.8452" y1="24.5824" x2="43.8184" y2="22.9224" gradientUnits="userSpaceOnUse">
<stop stop-color="#FCE053"/>
<stop offset="1" stop-color="#FCE053"/>
</linearGradient>
<linearGradient id="paint14_linear_80_161" x1="25.4172" y1="28.5358" x2="39.9746" y2="26.0351" gradientUnits="userSpaceOnUse">
<stop stop-color="#FCE053"/>
<stop offset="1" stop-color="#FCE053"/>
</linearGradient>
<linearGradient id="paint15_linear_80_161" x1="22.8606" y1="30.3419" x2="36.8169" y2="30.3419" gradientUnits="userSpaceOnUse">
<stop stop-color="#FCE053"/>
<stop offset="1" stop-color="#FCE053"/>
</linearGradient>
<clipPath id="clip0_80_161">
<rect width="59" height="35" fill="white"/>
</clipPath>
</defs>
</svg>
