<svg width="56" height="56" viewBox="0 0 56 56" fill="none" xmlns="http://www.w3.org/2000/svg">
<path d="M12.3867 41.1476C12.3867 41.1476 12.6595 41.2811 13.0941 41.6886L16.5587 40.143L18.9146 43.1026L18.8655 43.7775C19.0468 43.6707 19.5438 43.068 19.8251 42.5256C20.0133 42.1622 19.9699 41.7297 19.713 41.4065L17.641 38.8032L12.3872 41.1466L12.3867 41.1476Z" fill="#676767"/>
<path d="M23.0288 51.6675C23.1477 51.8476 23.1229 52.0403 22.9902 52.235L23.9683 51.0252L23.9709 51.0221C24.3125 50.6488 24.2839 50.2725 23.6331 49.9689C21.3618 48.9101 21.164 48.1072 20.3974 46.7634C19.8116 45.7367 19.1137 44.5716 18.7204 43.9182L17.3262 44.7412C17.3262 44.7412 18.4439 46.5752 19.3157 48.1027C20.0828 49.4465 20.2806 50.2489 22.5513 51.3082C22.7898 51.4196 22.9447 51.541 23.0282 51.6675H23.0288Z" fill="#676767"/>
<path d="M16.9401 53.8165C18.2634 54.4222 22.2567 53.3057 22.9884 52.2364L22.9895 52.2348C23.1222 52.0401 23.147 51.8475 23.0281 51.6673C22.9445 51.5404 22.7896 51.4194 22.5512 51.308C20.2799 50.2492 20.0821 49.4464 19.3155 48.1026C18.4437 46.5751 17.326 44.741 17.326 44.741L18.7202 43.9181L18.7673 43.8905C19.0506 43.7234 19.1215 43.3616 18.9201 43.1092L18.9153 43.1032L16.5594 40.1436L13.0948 41.6891L11.3057 42.4874C11.3057 42.4874 14.489 44.0385 16.4182 52.7994C16.4875 53.1135 16.5023 53.6168 16.9401 53.817V53.8165Z" fill="#9A9A9A"/>
<path d="M16.9401 53.8167C17.2197 53.9451 17.6189 53.9958 18.0821 53.9863C16.6112 45.8431 13.0165 42.1088 12.7511 41.8413L11.3057 42.4866C11.3057 42.4866 14.489 44.0377 16.4182 52.7985C16.4875 53.1127 16.5023 53.616 16.9401 53.8162V53.8167Z" fill="#818181"/>
<path d="M1.42467 36.3702C3.18948 41.0564 5.9472 44.3392 7.34087 43.9338C7.371 43.9252 7.40008 43.9157 7.42916 43.9036C10.8932 42.5378 15.0071 40.6826 18.3379 39.0081C18.431 38.9614 18.524 38.9148 18.6171 38.8676C19.2193 38.41 19.3472 37.1113 19.0913 35.3947C17.8695 32.4602 16.7476 29.4885 15.7282 26.4858C14.7771 25.0055 13.8096 24.0792 13.0376 24.0887C12.934 24.1083 12.8309 24.1283 12.7278 24.1484C9.0343 24.861 4.61381 25.9052 1.02339 26.9349C0.992721 26.9434 0.963642 26.953 0.935092 26.965C-0.413631 27.4909 -0.348072 31.6869 1.42414 36.3707L1.42467 36.3702Z" fill="#D10100"/>
<path d="M2.96644 35.8457C4.83858 40.8185 7.79086 44.2854 9.27916 43.8428C9.31141 43.8338 9.3426 43.8227 9.3738 43.8102C13.0742 42.3329 17.4688 40.3307 21.028 38.5298C21.1274 38.4796 21.2273 38.4294 21.3262 38.3787C21.9702 37.8895 22.1103 36.5191 21.8449 34.7126C20.5538 31.6321 19.3753 28.5099 18.3115 25.3526C17.3081 23.798 16.2829 22.823 15.4581 22.8336C15.3476 22.8542 15.2371 22.8752 15.1266 22.8968C11.1719 23.6495 6.43685 24.7494 2.58894 25.8353C2.55616 25.8444 2.52497 25.8544 2.49378 25.8669C1.04724 26.4209 1.08584 30.8764 2.96697 35.8467L2.96644 35.8457Z" fill="#FB4140"/>
<g style="mix-blend-mode:multiply">
<path d="M21.8448 34.7132C22.1097 36.5196 21.9701 37.89 21.3262 38.3788C21.2268 38.4295 21.1274 38.4797 21.028 38.5298C17.4693 40.3308 13.0742 42.333 9.37429 43.8107C9.3431 43.8233 9.31243 43.8348 9.27966 43.8439C8.36923 44.1148 6.91053 42.9226 5.48779 40.8175C6.43787 40.4462 7.86379 39.8867 7.88494 39.8787C11.5848 38.4009 15.9799 36.3987 19.5386 34.5978C19.638 34.5476 19.7379 34.4979 19.8368 34.4467C20.4379 33.9906 20.5997 32.7637 20.402 31.1313C20.8662 32.3316 21.3468 33.5249 21.8448 34.7127V34.7132Z" fill="#DFDFDF"/>
</g>
<path d="M18.3112 25.3521C18.6342 26.3131 18.9694 27.27 19.3146 28.2239C18.8933 27.1621 18.4862 26.0948 18.0923 25.0234C18.1658 25.1298 18.2382 25.2392 18.3117 25.3521H18.3112Z" fill="#0064B2"/>
<path d="M20.3555 30.7808C20.3729 30.8997 20.3888 31.0171 20.402 31.1315C20.0277 30.1661 19.6655 29.1976 19.3145 28.2246C19.6528 29.0802 20.0002 29.9322 20.3555 30.7808Z" fill="#0064B2"/>
<path opacity="0.18" d="M15.127 22.8965C14.1134 23.2784 13.8184 25.4903 14.3852 28.356C11.0692 29.053 7.4893 29.9161 4.45877 30.7707C4.43392 30.7772 2.64003 31.2022 1.72907 31.4205C1.20883 28.4624 1.50173 26.2465 2.49411 25.8671C2.5253 25.8546 2.5565 25.844 2.58875 25.8345C6.43665 24.7491 11.1723 23.6492 15.127 22.8965Z" fill="white"/>
<path d="M20.9971 32.6416C21.2736 33.3341 21.557 34.0246 21.8451 34.713C21.8636 34.837 21.8795 34.9584 21.8932 35.0783C21.5866 34.2684 21.2884 33.456 20.9971 32.6416Z" fill="#0064B2"/>
<path d="M20.1809 30.2884C20.4458 31.0748 20.7175 31.8586 20.9972 32.6409C20.6377 31.7442 20.2877 30.8434 19.9482 29.9397C20.026 30.0521 20.1032 30.1685 20.1809 30.2884Z" fill="#0064B2"/>
<path d="M20.5289 29.8798C21.1898 31.6326 21.6392 33.3066 21.8454 34.7126C22.1103 36.5191 21.9707 37.8895 21.3267 38.3782C21.2622 38.4284 21.193 38.4681 21.1179 38.4987C21.0883 38.5107 21.0582 38.5208 21.028 38.5293C19.6164 38.9588 16.967 35.9726 15.337 31.6436C14.904 30.5 14.5889 29.386 14.3849 28.3559C13.8181 25.4901 14.1136 23.2777 15.1266 22.8963C15.2371 22.8747 15.3476 22.8542 15.4576 22.8336C16.2824 22.823 17.3081 23.798 18.311 25.3526C19.093 26.5634 19.8665 28.1265 20.5284 29.8798H20.5289Z" fill="#D10100"/>
<path d="M15.4574 22.8333C15.3475 22.8538 15.237 22.8744 15.1265 22.896C15.155 22.8845 15.1846 22.8744 15.2158 22.8664C15.2946 22.8443 15.375 22.8328 15.4574 22.8333Z" fill="#0078C8"/>
<path d="M11.1336 41.7644C11.7342 41.5035 12.3317 41.2365 12.9265 40.9635C13.2738 40.8045 13.0729 40.2615 12.7213 40.4226C12.1265 40.6951 11.5291 40.9625 10.9285 41.2235C10.5769 41.3765 10.7783 41.9185 11.1336 41.7644Z" fill="#BC0402"/>
<path d="M5.51607 26.9047C6.15421 26.7446 6.79394 26.5916 7.43526 26.444C7.81381 26.3572 7.60603 25.8168 7.23012 25.9031C6.58881 26.0506 5.94908 26.2042 5.31093 26.3638C4.93396 26.4581 5.14122 26.9985 5.51607 26.9047Z" fill="#BC0402"/>
<path d="M10.1821 40.7034C10.7917 40.4405 11.3986 40.171 12.0024 39.8955C12.3503 39.7369 12.1489 39.194 11.7973 39.3546C11.1935 39.63 10.5871 39.8995 9.97694 40.1625C9.6243 40.3145 9.82626 40.8569 10.1821 40.7034Z" fill="#BC0402"/>
<path d="M5.49288 28.297C6.13949 28.1329 6.78821 27.9759 7.43851 27.8253C7.81654 27.7375 7.60876 27.1971 7.23338 27.2844C6.58307 27.4355 5.93435 27.592 5.28775 27.7561C4.91131 27.8514 5.11803 28.3919 5.49288 28.297Z" fill="#BC0402"/>
<path d="M11.0046 38.2265C10.3955 38.5035 9.78327 38.7739 9.16786 39.0384C8.81521 39.1899 9.01718 39.7319 9.373 39.5793C9.98841 39.3154 10.6006 39.0444 11.2097 38.7674C11.5581 38.6093 11.3567 38.0664 11.0046 38.2265Z" fill="#BC0402"/>
<path d="M5.62081 29.6528C6.27271 29.4862 6.92671 29.3271 7.58231 29.1741C7.96033 29.0858 7.75255 28.5453 7.37717 28.6331C6.72158 28.7862 6.06757 28.9453 5.41568 29.1119C5.03924 29.2082 5.24596 29.7486 5.62081 29.6528Z" fill="#BC0402"/>
<path d="M24.2394 28.6184C24.9484 30.4977 25.4147 32.3393 25.5876 33.9485C25.6019 34.076 25.6013 34.2044 25.5887 34.3319C25.3904 36.3571 22.0691 38.3217 21.7006 38.5655C21.6731 38.5826 21.644 38.5972 21.6112 38.6082C21.6001 38.6117 21.5901 38.6147 21.5726 38.6187C21.5499 38.6238 21.5245 38.6273 21.4981 38.6293C21.497 38.6293 21.496 38.6293 21.496 38.6293C21.35 38.6368 21.1507 38.5836 20.9065 38.4506C20.9054 38.4501 20.9043 38.4496 20.9017 38.4486C20.8969 38.4456 20.8906 38.4421 20.8848 38.4386C20.4645 38.2022 19.913 37.728 19.2654 36.9126C18.8842 36.4324 18.5072 35.8824 18.1435 35.2773C17.4503 34.1262 16.8037 32.7763 16.2591 31.3306C15.4264 29.1242 14.9252 26.95 14.848 25.2067C14.7999 24.1133 14.9284 23.3882 15.1166 22.9612C15.142 22.9055 15.1674 22.8543 15.1928 22.8096C15.2446 22.7183 15.2996 22.6465 15.3556 22.5934C15.4011 22.5487 15.4471 22.5166 15.4931 22.4955C15.5047 22.4905 15.5153 22.486 15.5258 22.4825C15.5586 22.4714 15.5903 22.4654 15.6311 22.4624C16.099 22.4263 20.4544 21.8823 21.7154 23.6883C22.63 24.9945 23.4791 26.6398 24.1754 28.4538C24.1971 28.5085 24.2183 28.5637 24.2389 28.6194L24.2394 28.6184Z" fill="#DFDFDF"/>
<path d="M55.8348 37.3181C55.6915 38.4507 55.4536 39.4643 55.1231 40.3364C55.0935 40.4137 55.0639 40.4915 55.0322 40.5667C54.55 41.7399 53.8902 42.6356 53.0527 43.1901C51.6924 42.9979 50.3389 42.7942 48.9875 42.5804C48.7348 42.5403 48.481 42.5002 48.2278 42.459C47.6779 42.3702 47.1196 42.2558 46.5539 42.1233C42.9883 41.2898 39.1098 39.7358 35.0065 39.2591C30.3016 38.7131 25.3027 39.5662 21.4981 38.6283C21.4976 38.6283 21.496 38.6283 21.496 38.6283C21.4357 38.6132 21.376 38.5977 21.3157 38.5826C21.2253 38.5596 21.1349 38.5355 21.0466 38.5109C21.0043 38.4948 20.9572 38.4732 20.9075 38.4502C20.906 38.4497 20.9054 38.4492 20.9028 38.4482C20.898 38.4446 20.8922 38.4421 20.8864 38.4391C20.8864 38.4391 20.886 38.4384 20.8853 38.4371C20.5538 37.3241 20.2213 36.2116 19.8893 35.0982C19.4346 33.5737 18.9783 32.0497 18.5231 30.5248L18.5289 30.5228H18.5236C17.9997 29.3596 17.4757 28.1964 16.9518 27.0328C16.3406 25.6749 15.7294 24.3166 15.1172 22.9587C15.142 22.903 15.1674 22.8523 15.1933 22.8071C15.2467 22.7354 15.3012 22.6626 15.3562 22.5914C17.664 19.5244 22.2076 17.1875 25.5591 13.9068C25.6294 13.838 25.6997 13.7683 25.7685 13.6985C25.8763 13.5906 25.9826 13.4813 26.0873 13.3709C26.1449 13.3111 26.202 13.2509 26.2586 13.1897C26.3384 13.1054 26.4166 13.0206 26.4944 12.9353C26.534 12.8921 26.5726 12.8485 26.6112 12.8053C26.8047 12.5901 26.994 12.3723 27.1796 12.152C27.2266 12.0973 27.2731 12.0416 27.3186 11.9864C27.4106 11.876 27.5021 11.7651 27.5919 11.6537C27.6374 11.5985 27.6824 11.5418 27.7268 11.4861C28.0932 11.03 28.4463 10.5663 28.7895 10.1007C28.855 10.0123 28.9195 9.92452 28.9835 9.83621C29.0528 9.74187 29.121 9.64803 29.1886 9.55369C29.2568 9.45936 29.3245 9.36552 29.3917 9.27118C29.3917 9.27118 29.3922 9.27118 29.3922 9.27068C29.4599 9.17634 29.5265 9.08251 29.5936 8.98917C29.7908 8.71168 29.9859 8.43519 30.1794 8.16071C30.4792 7.73569 30.7753 7.31418 31.0703 6.90019C31.1094 6.845 31.1491 6.7898 31.1882 6.7351C31.424 6.40542 31.6598 6.08126 31.8972 5.76362C31.9337 5.71495 31.9696 5.66577 32.0066 5.6176C32.1161 5.47158 32.2266 5.32756 32.3371 5.18455C32.4301 5.06412 32.5242 4.94469 32.6183 4.82677C32.6532 4.78311 32.6876 4.73946 32.7235 4.6963C32.9287 4.44239 33.1359 4.19451 33.3464 3.95515C33.3797 3.91651 33.4135 3.87888 33.4473 3.84124C33.4833 3.80059 33.5187 3.75995 33.5552 3.72081C33.6102 3.65959 33.6657 3.59937 33.7212 3.53966C33.8729 3.37658 34.0247 3.21399 34.177 3.05091C34.9383 2.23649 35.707 1.42609 36.4837 0.619204C36.6386 0.458127 36.7946 0.296548 36.9505 0.135472C36.9939 0.0903099 37.0372 0.04565 37.0811 0.000488281H37.0816C38.0682 0.00400086 39.133 0.338699 40.238 0.960425C41.1548 1.47677 42.099 2.19083 43.0497 3.08001C43.0549 3.17937 43.0602 3.27923 43.0655 3.37959C43.0708 3.47944 43.0761 3.58031 43.0824 3.68117C43.0877 3.78203 43.0941 3.88289 43.1004 3.98425C43.1068 4.08612 43.1126 4.18748 43.1189 4.28985C43.1316 4.48705 43.1443 4.68576 43.1575 4.88548C43.1713 5.09874 43.1861 5.31301 43.2019 5.52828C43.5762 10.7871 44.2694 16.6923 44.7161 21.7458C47.393 25.4903 50.3653 29.878 53.2425 33.8432C53.6042 34.3419 53.9647 34.8347 54.3232 35.3184C54.8318 36.0054 55.3362 36.6738 55.8327 37.3186L55.8348 37.3181Z" fill="#DBDDDD"/>
<path opacity="0.41" d="M43.0518 3.07947C43.0571 3.17883 43.0624 3.27869 43.0677 3.37904C43.073 3.4789 43.0783 3.57976 43.0846 3.68062C43.0899 3.78149 43.0962 3.88235 43.1026 3.98371C43.1089 4.08507 43.1147 4.18694 43.1211 4.2893C43.1338 4.48651 43.1465 4.68522 43.1597 4.88494C41.6079 6.17907 40.0757 7.47923 38.5626 8.7854C36.4689 10.5929 34.5487 12.7988 32.4645 15.0373C30.7774 16.8503 28.9825 18.6843 26.8999 20.3463C23.8028 22.8176 20.077 24.9111 16.9518 27.0337C16.3777 27.4236 15.8236 27.8145 15.2981 28.209C15.0427 27.1296 14.8894 26.1099 14.8492 25.2062C14.8005 24.1123 14.9295 23.3872 15.1178 22.9602C15.1426 22.9045 15.168 22.8538 15.1939 22.8086C15.2457 22.7173 15.3007 22.6455 15.3567 22.5928C17.6645 19.5259 22.2082 17.189 25.5597 13.9082C25.63 13.8395 25.7003 13.7697 25.769 13.7C25.8769 13.5921 25.9832 13.4827 26.0878 13.3723C26.1455 13.3126 26.2026 13.2524 26.2591 13.1912C26.339 13.1069 26.4172 13.0221 26.4949 12.9368C26.5346 12.8936 26.5732 12.85 26.6118 12.8068C26.8053 12.5915 26.9946 12.3738 27.1801 12.1535C27.2272 12.0988 27.2732 12.0431 27.3192 11.9879C27.4112 11.8775 27.5026 11.7666 27.5925 11.6552C27.638 11.599 27.6829 11.5433 27.7273 11.4876C28.0937 11.0314 28.4469 10.5678 28.79 10.1021C28.8556 10.0138 28.9201 9.92599 28.9841 9.83767C29.0533 9.74333 29.1215 9.6495 29.1892 9.55516C29.2579 9.46082 29.3256 9.36699 29.3922 9.27265C29.3922 9.27265 29.3928 9.27265 29.3928 9.27215C29.4604 9.17781 29.5281 9.08447 29.5942 8.99064C29.7919 8.71314 29.987 8.43666 30.18 8.16217C30.4798 7.73715 30.7759 7.31564 31.0709 6.90166C31.11 6.84646 31.1496 6.79126 31.1888 6.73657C31.4246 6.40689 31.6604 6.08273 31.8978 5.76509C31.9342 5.71641 31.9702 5.66724 32.0072 5.61907C32.1166 5.47304 32.2271 5.32903 32.3376 5.18601C32.4307 5.06558 32.5248 4.94616 32.6189 4.82823C32.6538 4.78458 32.6882 4.74092 32.7241 4.69777C32.9293 4.44386 33.1365 4.19597 33.3469 3.95661C33.3802 3.91797 33.4141 3.88034 33.4479 3.84271C33.4839 3.80206 33.5193 3.76141 33.5558 3.72227C33.6108 3.66105 33.6663 3.60084 33.7218 3.54113C33.8735 3.37804 34.0253 3.21546 34.1775 3.05238C34.9389 2.23796 35.7076 1.42756 36.4843 0.620668C36.6392 0.459592 36.7951 0.298013 36.9511 0.136936C36.9945 0.0917747 37.0378 0.0471148 37.0817 0.00195312H37.0822C38.0688 0.0054657 39.1336 0.340164 40.2386 0.96189C41.1554 1.47824 42.0996 2.1923 43.0502 3.08148L43.0518 3.07947Z" fill="white"/>
<path d="M55.8348 37.3182C55.6916 38.4508 55.4536 39.4644 55.1232 40.3365C55.0936 40.4138 55.064 40.4916 55.0323 40.5669C54.5501 41.7401 53.8903 42.6358 53.0528 43.1903C51.6925 42.9981 50.339 42.7943 48.9876 42.5806C48.7349 42.5404 48.4811 42.5003 48.2279 42.4591C47.678 42.3703 47.1197 42.2559 46.554 42.1234C42.9884 41.29 39.1098 39.7359 35.0066 39.2592C30.3016 38.7132 25.3027 39.5663 21.4982 38.6284C21.4976 38.6284 21.4961 38.6284 21.4961 38.6284C21.3501 38.636 21.1508 38.5833 20.9071 38.4498C20.9055 38.4493 20.905 38.4488 20.9023 38.4478C20.8976 38.4443 20.8918 38.4418 20.8859 38.4388C20.8859 38.4388 20.8856 38.4381 20.8849 38.4367C20.4646 38.2009 19.9131 37.7262 19.266 36.9113C18.8848 36.4306 18.5078 35.8811 18.1436 35.2754C18.7151 35.2252 19.2967 35.1655 19.8888 35.0978C21.716 34.889 23.6347 34.6115 25.5893 34.331C28.7943 33.8714 32.0976 33.4057 35.2625 33.2261C36.5551 33.1533 37.8251 33.1287 39.0723 33.1378C40.0181 33.1443 40.9518 33.1694 41.8734 33.207C45.8577 33.3701 49.6263 33.7625 53.2453 33.8418C53.6069 34.3406 53.9675 34.8333 54.3259 35.3171C54.8345 36.004 55.3389 36.6724 55.8354 37.3172L55.8348 37.3182Z" fill="#BDBFBF"/>
<path d="M51.4661 19.3714C53.4578 24.6468 54.4988 29.8585 54.3962 34.0439C54.3095 37.5896 53.388 39.9742 51.8584 40.6396C51.8008 40.6647 51.7416 40.6877 51.6819 40.7083C50.0577 41.2598 47.6886 40.0008 45.1767 37.2539C44.8996 36.984 44.6194 36.6939 44.3382 36.3838C41.6555 33.4287 39.1548 29.0952 37.3006 24.1811C35.4448 19.2685 34.4752 14.4147 34.5704 10.5157C34.5793 10.1092 34.6016 9.71986 34.6354 9.34752C34.7353 5.70649 35.7219 3.30438 37.3503 2.75291C37.409 2.73284 37.4682 2.71578 37.529 2.70072C39.1563 2.29075 41.4662 3.57937 43.9073 6.26749C46.7898 9.44186 49.474 14.095 51.4667 19.3719L51.4661 19.3714Z" fill="#BDBFBF"/>
<path d="M38.8268 31.7824L44.2159 27.0686L41.0331 18.666L33.7153 18.2871L38.8268 31.7824Z" fill="#CACACA"/>
<g style="mix-blend-mode:multiply">
<path d="M33.7153 18.2871L36.2711 25.0348L42.6245 22.867L41.0331 18.666L33.7153 18.2871Z" fill="#CFCFCF"/>
</g>
<path d="M44.0937 27.2481C44.688 27.0453 44.4371 24.946 43.5332 22.5592C42.6293 20.1723 41.4147 18.4018 40.8203 18.6046C40.226 18.8073 40.4769 20.9066 41.3808 23.2934C42.2847 25.6803 43.4993 27.4508 44.0937 27.2481Z" fill="#9A9A9A"/>
<path d="M51.8584 40.6395C51.8002 40.6646 51.7415 40.6882 51.6818 40.7083C50.0576 41.2598 47.6885 40.0002 45.1761 37.2534C44.8996 36.9829 44.6188 36.6934 44.3376 36.3833C43.4932 35.453 42.6669 34.3861 41.8728 33.2074C40.1444 30.6422 38.5705 27.5482 37.3 24.1806C35.4443 19.268 34.4746 14.4146 34.5698 10.5147C34.5793 10.1082 34.6015 9.71932 34.6348 9.34649C34.7342 5.70595 35.7218 3.30385 37.3492 2.75188C37.4084 2.73231 37.4676 2.71474 37.5279 2.69969C38.9982 2.32936 41.0247 3.3455 43.2035 5.52681C43.4356 5.76015 43.6704 6.00653 43.9067 6.26646C46.7892 9.44032 49.4734 14.094 51.4656 19.3709C53.4577 24.6458 54.4987 29.8574 54.3962 34.0434C54.3856 34.486 54.3613 34.911 54.3248 35.317C54.0689 38.1576 53.1965 40.0559 51.8579 40.6385L51.8584 40.6395ZM52.7741 18.9278C50.1792 12.0587 46.5729 6.37134 43.0518 3.07905C42.1017 2.18987 41.1569 1.47581 40.2401 0.95946C39.1351 0.338236 38.0703 0.00353729 37.0838 2.47163e-05H37.0832C36.6307 -0.00148067 36.1945 0.0657601 35.7789 0.207267C35.7102 0.230851 35.642 0.254937 35.5754 0.282536C34.2499 0.81996 33.284 2.08449 32.6855 3.89397C32.5517 4.29741 32.4359 4.72896 32.3386 5.18459C31.7835 7.7844 31.8216 11.1971 32.4645 15.0374C32.9546 17.9734 33.7979 21.1598 34.9991 24.4245C35.0054 24.44 35.0102 24.4551 35.0165 24.4721C35.0683 24.6152 35.1223 24.7582 35.1767 24.9017C35.2285 25.0402 35.2819 25.1782 35.3343 25.3152C36.4345 28.1634 37.7066 30.8008 39.0722 33.1392C41.4265 37.1736 44.0574 40.3194 46.5539 42.1238C46.759 42.2724 46.9626 42.4114 47.1651 42.5413C47.4041 42.6949 47.6404 42.8349 47.8757 42.9603C49.1329 43.6383 50.3368 43.9373 51.428 43.7938C51.6506 43.7647 51.8663 43.7186 52.0799 43.6518C52.1106 43.6443 52.1412 43.6327 52.1735 43.6217C52.486 43.5158 52.7783 43.3713 53.0527 43.1907C53.8902 42.6362 54.5505 41.7405 55.0322 40.5673C55.0639 40.492 55.0935 40.4147 55.1231 40.3369C55.4536 39.4648 55.6915 38.4507 55.8348 37.3186C56.4296 32.6399 55.4224 25.9439 52.7741 18.9283V18.9278Z" fill="#9A9A9A"/>
</svg>
