<svg width="33" height="56" viewBox="0 0 33 56" fill="none" xmlns="http://www.w3.org/2000/svg">
<g clip-path="url(#clip0_80_64)">
<path d="M27.8276 31.213C27.8276 31.213 26.414 29.9548 25.9686 27.1828C25.731 25.7014 27.4824 20.6672 28.9108 15.5475C30.3402 10.4278 31.4468 5.223 31.6402 4.21462C31.9304 2.70228 31.8401 0.682122 29.3751 0.122605C26.8009 -0.462037 25.4652 1.1595 25.0198 2.63077C24.5089 4.31802 18.8869 26.3387 17.9931 26.3532C16.7934 26.3721 14.2574 5.62307 13.812 3.07674C13.4663 1.09959 12.3409 -0.27988 9.97899 0.10956C7.44995 0.527506 7.03828 2.83129 7.11417 4.17065C7.25602 6.67253 10.289 26.9755 10.289 26.9755L12.5859 30.3945L27.8271 31.213H27.8276Z" fill="#FCE053"/>
<path d="M10.0564 24.354C10.0564 24.354 9.95328 24.7251 9.21773 24.8758C8.53426 25.016 8.12061 24.7879 8.12061 24.7879L8.60469 26.4853L10.3922 26.3345L10.0569 24.3545L10.0564 24.354Z" fill="#FBD428"/>
<path d="M0.319822 32.64C0.319822 32.64 0.389756 33.3623 0.429435 34.493C0.481513 35.9638 0.217152 36.2169 0.339165 37.9254C0.468122 39.7354 1.18284 43.0577 2.73925 45.5814C4.73956 48.8244 6.78501 50.2662 8.04333 51.5901C9.40482 53.0232 9.31951 53.517 9.93999 54.0669C10.6497 54.695 13.2795 55.8793 17.8123 55.9904C22.9616 56.1155 25.2843 54.9719 25.8393 54.4819C26.5154 53.8837 26.6007 52.7715 27.4394 51.5399C28.1695 50.4677 28.7607 50.1739 29.9818 48.1833C31.3081 46.0206 34.0078 37.5225 32.6081 34.7065C30.8205 31.1112 27.8273 31.2127 27.8273 31.2127L7.34647 33.7634L0.319822 32.64Z" fill="#F9CF57"/>
<path d="M0.319822 32.6399C0.319822 32.6399 0.389756 33.3622 0.429435 34.4929C0.481513 35.9637 0.217152 36.2168 0.339165 37.9253C0.468122 39.7353 1.18284 43.0576 2.73925 45.5813C4.73956 48.8243 6.78501 50.2661 8.04333 51.59C9.40482 53.0231 9.31951 53.5169 9.93999 54.0668C10.6497 54.6949 13.2795 55.8792 17.8123 55.9903C22.9616 56.1154 25.2843 54.9718 25.8393 54.4818C25.9242 54.4064 25.9995 54.3233 26.0685 54.233C26.0685 54.233 25.1162 54.8645 23.8777 55.1476C21.0436 55.7951 17.8574 56.3546 11.9924 53.8783C9.95982 53.0207 9.77234 51.8669 8.76598 50.9368C8.0592 50.2835 4.3264 48.0769 2.10091 42.646C0.357517 38.3935 0.927406 36.9716 1.04892 36.9068C1.33312 36.7561 1.7939 38.2312 2.67477 39.7228C3.7585 41.5583 5.87537 43.8969 8.06912 43.5954C9.66372 43.376 9.41771 41.9357 9.64338 41.8854C9.86906 41.8352 11.1591 44.2718 13.3082 43.4693C14.5209 43.017 15.1151 41.5583 14.9083 40.3011C14.574 38.2641 14.6434 37.3238 15.3601 37.2339C16.5604 37.0827 18.8058 38.1959 18.9997 39.0816C19.1921 39.9643 18.2904 41.0694 17.6446 42.4387C16.0962 45.7194 15.683 47.9449 15.683 47.9449L18.8836 43.1552L22.794 38.8931L22.0197 37.7997L14.5477 34.8954L12.1089 34.3672L9.95536 33.4391L7.34647 33.7638L0.319822 32.6399Z" fill="#F7AD20"/>
<path d="M13.2316 34.7818L18.6518 36.5169L23.4524 38.7419L19.6581 42.3251L16.8449 45.4431C16.8449 45.4431 17.632 43.3809 19.2583 41.0805C20.0008 40.03 20.8172 39.5348 20.6779 38.767C20.5291 37.95 13.6919 35.3679 13.3477 35.6873C13.0769 35.9385 13.5208 36.858 13.9285 38.051C14.2895 39.1067 14.4081 40.1605 14.109 40.9046C13.7608 41.7719 12.999 42.0236 12.999 42.0236L13.2316 37.3847L12.3413 35.4611L12.4961 34.5562L13.2316 34.7823V34.7818Z" fill="#F7AD20"/>
<path d="M25.0201 2.6304C24.5092 4.31765 18.8872 26.3384 17.9934 26.3528C17.8228 26.3553 17.6249 25.9363 17.4097 25.2092C17.4097 25.2092 17.4226 26.1074 17.7226 26.5413C17.8699 26.7539 18.4904 27.0588 18.8649 26.3905C19.8906 24.5617 25.152 4.54667 25.8529 2.49849C26.6851 0.0657054 29.0242 0.056525 29.0242 0.056525C26.6792 -0.309722 25.4447 1.22774 25.0201 2.63088V2.6304Z" fill="#F7AD20"/>
<path d="M25.9686 27.1829C25.8828 26.6485 26.0559 25.6513 26.3793 24.3539C26.3793 24.3539 25.6978 25.4667 25.6006 27.2583C25.5406 28.3691 25.9036 29.3326 25.3104 29.5776C24.0328 30.1057 12.9261 28.5489 10.8569 23.0784C9.59261 19.7343 7.42415 5.17624 8.04413 2.57434C8.52276 0.560953 10.7001 0.0449219 10.7001 0.0449219C10.4735 0.0473378 10.2344 0.0676311 9.97948 0.109667C7.45044 0.527614 7.03877 2.83139 7.11466 4.17075C7.22625 6.13486 9.11993 19.0757 9.92839 24.5433C9.81382 24.6583 9.60302 24.797 9.21814 24.8758C8.53467 25.0159 8.12101 24.7878 8.12101 24.7878L8.6051 26.4852L10.1962 26.3509C10.2032 26.3983 10.2096 26.4432 10.2161 26.4852L11.7343 27.6796L22.4451 30.6212L27.8142 31.202C27.6763 31.072 26.3892 29.8051 25.9681 27.1829H25.9686Z" fill="#FFC619"/>
<path d="M25.9686 27.1829C25.8828 26.6485 26.0559 25.6513 26.3793 24.3539C26.3793 24.3539 25.6978 25.4667 25.6006 27.2583C25.5406 28.3691 25.9036 29.3326 25.3104 29.5776C24.0328 30.1057 12.9261 28.5489 10.8569 23.0784C9.59261 19.7343 7.42415 5.17624 8.04413 2.57434C8.52276 0.560953 10.7001 0.0449219 10.7001 0.0449219C10.4735 0.0473378 10.2344 0.0676311 9.97948 0.109667C7.45044 0.527614 7.03877 2.83139 7.11466 4.17075C7.22625 6.13486 9.11993 19.0757 9.92839 24.5433C9.81382 24.6583 9.60302 24.797 9.21814 24.8758C8.53467 25.0159 8.12101 24.7878 8.12101 24.7878L8.6051 26.4852L10.1962 26.3509C10.2032 26.3983 10.2096 26.4432 10.2161 26.4852L11.7343 27.6796L22.4451 30.6212L27.8142 31.202C27.6763 31.072 26.3892 29.8051 25.9681 27.1829H25.9686Z" fill="#F7AD20"/>
<path d="M4.30766 23.2041C1.96561 24.1091 2.48838 26.5791 2.79788 27.3715C3.10787 28.1634 7.15909 37.4737 9.3211 40.7603C9.80469 41.4957 10.7917 42.9099 12.67 42.1745C14.277 41.545 14.0637 39.8741 13.7349 38.5541C13.4824 37.5404 8.96647 26.1437 8.52752 24.9392C8.10147 23.7704 6.28715 22.4392 4.30766 23.2046V23.2041Z" fill="#FFD215"/>
<path d="M3.56569 29.0243C3.39706 28.6422 2.3783 27.843 0.971682 29.0997C-0.259854 30.2009 -0.137841 31.9785 0.339299 33.3613C0.767832 34.6026 4.24966 41.9101 7.04951 42.3373C8.6823 42.5866 9.50117 41.0675 9.29534 40.6529C9.05776 40.1755 3.68126 29.2877 3.56569 29.0239V29.0243Z" fill="#FCE053"/>
<path d="M4.30766 23.2041C1.96561 24.1091 2.48838 26.5791 2.79788 27.3715C3.10787 28.1634 7.15909 37.4737 9.3211 40.7603C9.80469 41.4957 10.7917 42.9099 12.67 42.1745C14.277 41.545 14.0637 39.8741 13.7349 38.5541C13.4824 37.5404 8.96647 26.1437 8.52752 24.9392C8.10147 23.7704 6.28715 22.4392 4.30766 23.2046V23.2041Z" fill="#FCE053"/>
<path d="M26.1754 30.5329C25.233 30.6459 24.1617 30.2188 22.2134 29.8163C17.7639 28.8978 15.6704 27.943 13.8506 27.2642C12.0308 26.5858 11.3806 25.8784 10.3534 25.6175C9.4115 25.3783 8.59759 25.6122 8.50781 25.5924C8.64123 26.4892 10.2889 26.9757 10.2889 26.9757L11.2556 28.4151L13.6572 29.6912L23.0804 30.959L27.827 31.2136C27.827 31.2136 27.4337 30.8633 26.9962 30.1255L26.9749 30.1062C26.9749 30.1062 27.1167 30.4203 26.1749 30.5338L26.1754 30.5329Z" fill="#F7AD20"/>
<path d="M13.7349 38.5536C13.6134 38.0661 12.5044 35.1724 11.3368 32.168C11.3368 32.168 10.5214 32.7077 8.77953 33.1599C7.03713 33.6127 5.52734 32.783 5.52734 32.783L6.22421 34.8201L7.78706 38.0762C8.34604 39.1426 8.87426 40.0804 9.32164 40.7603C9.34595 40.7975 9.37223 40.8361 9.39951 40.8767L11.7396 42.3784C12.0228 42.3692 12.3318 42.3074 12.6705 42.1745C14.2775 41.5449 14.0643 39.8741 13.7354 38.5541L13.7349 38.5536Z" fill="#FCE053"/>
<path d="M11.7887 33.3338L9.85042 29.9423L9.1615 26.5862C9.03006 26.248 8.9135 25.9484 8.81629 25.6967C8.81629 25.6967 7.21772 25.3159 5.84979 26.2209C4.48186 27.1264 3.67985 30.2999 6.57244 32.293C8.1601 33.3864 12.5193 35.2307 12.5193 35.2307C12.2922 34.6369 12.0457 33.9957 11.7892 33.3338H11.7887Z" fill="#F7AD20"/>
<path d="M5.90156 27.7044C4.98547 29.6912 6.3787 31.652 9.07588 32.9594C16.3862 36.503 21.9309 38.0101 22.097 38.6672C22.2776 39.3837 20.5996 40.1003 18.7154 42.564C16.5261 45.4278 15.6829 47.9446 15.6829 47.9446L28.0201 48.2466C28.0201 48.2466 31.8139 42.0107 31.8397 37.5356C31.866 33.0599 28.4457 31.4133 27.6848 31.162C26.9894 30.932 22.4452 30.2696 18.0835 28.9114C14.1806 27.6967 12.5116 27.041 10.5986 26.3718C9.5922 26.0196 6.90048 25.5388 5.90156 27.7044Z" fill="#FCE053"/>
<path d="M5.90156 27.7044C4.98547 29.6912 6.3787 31.652 9.07588 32.9594C16.3862 36.503 21.9309 38.0101 22.097 38.6672C22.2776 39.3837 20.5996 40.1003 18.7154 42.564C16.5261 45.4278 15.6829 47.9446 15.6829 47.9446L28.0201 48.2466C28.0201 48.2466 31.8139 42.0107 31.8397 37.5356C31.866 33.0599 28.4457 31.4133 27.6848 31.162C26.9894 30.932 22.4452 30.2696 18.0835 28.9114C14.1806 27.6967 12.5116 27.041 10.5986 26.3718C9.5922 26.0196 6.90048 25.5388 5.90156 27.7044Z" fill="#FCE053"/>
<path d="M9.29576 40.6535C9.2789 40.6192 9.23476 40.5308 9.16929 40.3979L8.74075 39.8364L5.72118 33.8774C5.72118 33.8774 5.91462 35.3105 3.90091 36.0643C1.8882 36.819 1.35303 35.815 1.35303 35.815C2.70112 38.1357 5.02432 42.0615 7.05043 42.3378C8.68768 42.5611 9.50209 41.0681 9.29626 40.6535H9.29576Z" fill="#FCE053"/>
<path d="M8.27605 25.7181L8.85883 25.807C8.69714 25.389 8.58157 25.0866 8.52801 24.9387C8.10196 23.7699 6.28763 22.4388 4.30815 23.2041C1.9661 24.1091 2.48887 26.5791 2.79837 27.3715C3.10836 28.1634 7.08121 37.9071 9.24421 41.1937C9.70895 41.8996 10.7158 42.7969 12.4508 42.2514C12.4508 42.2514 11.4707 42.3253 10.5412 41.6276C9.61224 40.9299 8.79882 39.4272 7.01822 35.7821C5.23763 32.1361 4.23475 29.7415 3.60534 27.8054C3.10191 26.2592 3.29535 24.5618 4.8959 24.0593C7.13528 23.3553 8.27654 25.7186 8.27654 25.7186L8.27605 25.7181Z" fill="#F7AD20"/>
<path d="M22.4976 40.955C23.3745 40.0997 25.0782 38.4908 23.2718 37.5858C21.4649 36.6803 16.6161 35.5265 11.7604 33.3111C5.25656 30.3444 5.87605 28.9867 5.72428 28.1904C5.22333 30.0067 6.5992 31.7587 9.07616 32.9594C16.3865 36.503 21.9311 38.01 22.0973 38.6671C22.2778 39.3837 20.5999 40.1002 18.7157 42.5639C16.9356 44.8928 16.0453 46.9922 15.775 47.6952C15.775 47.6952 18.4706 45.1286 19.5033 44.0226C20.5354 42.9162 21.6197 41.8102 22.4976 40.9554V40.955Z" fill="#FCE053"/>
<path d="M9.15365 38.8179C9.33468 38.6416 9.66997 38.8682 11.1798 38.4411C12.69 38.0134 12.7927 37.4602 13.0769 37.4602C13.3611 37.4602 15.0906 41.257 12.5611 41.9861C10.2022 42.6664 8.9736 38.9943 9.15414 38.8184L9.15365 38.8179Z" fill="#FCE053"/>
<path d="M4.76583 40.1247C4.86949 39.986 5.76128 40.1006 6.72746 39.8227C7.73382 39.5338 8.17922 39.0811 8.17922 39.0811L9.18557 40.7784C9.18557 40.7784 9.08886 41.6651 8.14003 42.0608C7.65595 42.2628 6.86287 42.3435 6.10748 41.7593C5.00986 40.9089 4.66267 40.2629 4.76583 40.1247Z" fill="#FCE053"/>
<path d="M10.2893 0.57492C8.20712 0.864342 8.06626 3.47059 8.1724 4.67321C8.66194 10.2085 9.44163 16.1124 10.4182 20.4885C10.9341 22.8019 11.8784 24.8269 14.0831 24.6119C15.6315 24.4612 16.3101 22.0878 16.0963 20.4634C15.882 18.8389 14.0831 6.78565 13.541 3.24011C13.2831 1.5519 12.2762 0.298543 10.2888 0.57492H10.2893Z" fill="#FCE053"/>
<path d="M29.2856 0.659143C27.2511 0.143112 26.087 2.49376 25.7086 3.64227C23.9647 8.93207 22.3428 14.6712 21.5086 19.0749C21.0671 21.4023 21.1356 23.6259 23.254 24.2574C24.7424 24.701 26.3097 22.7673 26.7561 21.1883C27.2025 19.6098 30.3233 7.81497 31.2289 4.34046C31.6604 2.68655 31.2289 1.15198 29.2861 0.659143H29.2856Z" fill="#FCE053"/>
<path d="M16.2361 47.5806C16.5873 46.7263 17.4582 44.84 19.0265 42.7889C19.9089 41.6341 20.7511 40.8668 21.3661 40.3064C22.1215 39.6178 22.621 39.1636 22.4727 38.5761C22.3506 38.0929 21.5908 37.7798 18.7051 36.6589C16.317 35.7321 13.0474 34.4619 9.24815 32.6205C6.59165 31.3328 5.4727 29.5523 6.25388 27.8578C6.68787 26.9176 7.53303 26.4412 8.76705 26.4412C9.58939 26.4412 10.2763 26.6586 10.4673 26.7258C10.9142 26.8823 11.3457 27.0374 11.802 27.2007C13.287 27.7332 14.9694 28.3371 17.9646 29.2697C21.0348 30.2249 24.1709 30.8342 26.0448 31.198C26.7872 31.3425 27.3745 31.456 27.5595 31.5174C27.5987 31.53 31.4793 32.8655 31.452 37.532C31.4297 41.423 28.423 46.7896 27.7986 47.8622L16.2356 47.5796L16.2361 47.5806Z" fill="#FCE053"/>
<path d="M0.971682 29.0997C-0.259854 30.2009 -0.137841 31.9785 0.339299 33.3613C0.43304 33.6329 0.673098 34.1958 1.02078 34.9133C0.95581 34.7418 -0.4642 30.93 1.23009 29.6336C2.58513 28.5967 3.74673 29.5012 3.74673 29.5012L3.73135 29.3674C3.63513 29.1698 3.57661 29.049 3.56569 29.0239C3.39706 28.6417 2.3783 27.8425 0.971682 29.0992V29.0997Z" fill="#F7AD20"/>
<path d="M9.20541 26.277C8.72083 26.2398 6.64959 25.674 5.91404 27.6541C5.17155 29.653 6.11194 30.5966 6.82368 31.1619C7.34645 31.577 9.06951 32.3496 9.22425 31.8592C9.44051 31.1745 10.6373 28.1257 11.0435 27.4091C11.4096 26.7646 9.6885 26.3152 9.20491 26.2775L9.20541 26.277Z" fill="#FCE053"/>
<path d="M9.20541 26.277C8.72083 26.2398 6.64959 25.674 5.91404 27.6541C5.17155 29.653 6.11194 30.5966 6.82368 31.1619C7.34645 31.577 9.06951 32.3496 9.22425 31.8592C9.44051 31.1745 10.6373 28.1257 11.0435 27.4091C11.4096 26.7646 9.6885 26.3152 9.20491 26.2775L9.20541 26.277Z" fill="#FCE053"/>
</g>
<defs>
<clipPath id="clip0_80_64">
<rect width="33" height="56" fill="white"/>
</clipPath>
</defs>
</svg>
