<svg width="59" height="56" viewBox="0 0 59 56" fill="none" xmlns="http://www.w3.org/2000/svg">
<g clip-path="url(#clip0_73_200)">
<path d="M46.6888 24.2946V40.3688C46.6888 43.6251 45.7543 46.6365 44.171 49.0829C43.8771 49.5364 43.7204 50.0845 43.7204 50.6456V56.6001C43.7204 57.1523 43.2727 57.6001 42.7204 57.6001H21.2654C20.1608 57.6001 19.2654 56.7046 19.2654 55.6001V50.6521C19.2654 50.0703 19.096 49.5027 18.7825 49.0401L12.6647 39.9645C11.57 38.3396 10.9766 36.357 10.9766 34.3188V30.9031C10.9766 28.8376 12.4654 27.1647 14.2999 27.1647H16.2981L17.1961 9.9499C17.1961 7.61491 17.3347 0.918179 19.4101 0.866348C19.9718 0.852224 21.1051 0.109871 21.5883 0.341686C22.0379 0.557434 22.443 0.867514 22.7835 1.25042C23.4703 2.024 23.8955 3.09172 23.8955 4.27218V18.2873C23.8955 17.1082 25.2314 16.664 25.9193 15.8904C26.6061 15.1181 28.7215 14.1368 29.1771 14.3544C30.5377 15.0041 31.4929 16.5207 31.4929 18.2873V20.9592C31.4929 19.7788 33.0085 18.1477 34.0572 18.1477C34.5836 18.1477 36.3194 16.8074 36.7752 17.025C38.1364 17.6748 39.0914 19.1915 39.0914 20.9592V24.1158H39.0949C39.179 21.8404 43.9172 20.1439 44.3728 20.3612C44.8256 20.5773 45.2333 20.8892 45.5757 21.2741C46.2636 22.0464 46.6888 23.1154 46.6888 24.2946Z" fill="#D9AE64"/>
<path d="M21.6427 50.6519V57.5999H19.2654V50.6519C19.2654 50.0701 19.096 49.5025 18.7825 49.0399L12.6647 39.9643C11.57 38.3394 10.9766 36.3568 10.9766 34.3186V30.9029C10.9766 28.8374 12.4654 27.1646 14.2999 27.1646H15.6816C13.8447 27.1646 13.3538 28.8374 13.3538 30.9029V34.3186C13.3538 36.3568 13.9462 38.3394 15.042 39.9643L21.161 49.0399C21.4733 49.5025 21.6427 50.0701 21.6427 50.6519Z" fill="#AF783D"/>
<path d="M39.0898 24.3767C39.0898 22.0255 40.7486 20.0533 42.8393 20.0238C43.3845 20.016 43.9025 20.1368 44.3725 20.3612C43.0121 21.0113 42.0734 21.9475 42.0576 23.4913C42.0576 24.0827 41.6312 24.562 41.1054 24.562H39.2546C39.1637 24.562 39.0898 24.4791 39.0898 24.3767Z" fill="#AF783D"/>
<path d="M36.7756 17.0248C35.4151 17.6762 34.4619 19.1927 34.4619 20.9587V23.4936C34.4619 24.0835 34.0367 24.5615 33.5122 24.5615H31.6589C31.5679 24.5615 31.4941 24.4785 31.4941 24.3762V20.9587C31.4941 18.5996 33.1949 16.687 35.293 16.687C35.8188 16.6871 36.3197 16.8073 36.7756 17.0248Z" fill="#AF783D"/>
<path d="M29.1776 14.3544C27.8171 15.0058 26.8642 16.5218 26.8642 18.2879V25.2148C26.8642 25.8046 26.439 26.2826 25.9146 26.2826H24.0613C23.9702 26.2826 23.8965 26.1997 23.8965 26.0973V18.2878C23.8965 15.9287 25.5972 14.0161 27.6953 14.0161C28.2211 14.0162 28.7217 14.1369 29.1776 14.3544Z" fill="#AF783D"/>
<path d="M21.5879 0.341576C20.2155 1.00903 19.2646 2.57615 19.2646 4.35694V35.7202C19.2646 36.31 18.8394 36.788 18.315 36.788H16.4617C16.3706 36.788 16.2969 36.7051 16.2969 36.6027V4.35694C16.2969 2.02091 17.9327 0.0532643 20.009 0.00117387C20.5705 -0.0134685 21.1058 0.109372 21.5879 0.341576Z" fill="#AF783D"/>
</g>
<defs>
<clipPath id="clip0_73_200">
<rect width="59" height="56" fill="white"/>
</clipPath>
</defs>
</svg>
