<svg width="62" height="103" viewBox="0 0 62 103" fill="none" xmlns="http://www.w3.org/2000/svg">
<path fill-rule="evenodd" clip-rule="evenodd" d="M60.0065 30.1079C58.052 35.9563 54.085 29.165 51.7636 28.02C45.7177 22.6207 40.0718 17.1989 34.4259 11.7772C32.5439 9.9699 28.6618 8.27488 30.1376 3.72864C30.6557 1.78667 32.2952 1.05704 33.4165 2.26936C41.3444 9.47595 48.8329 17.3448 56.8002 23.9116C58.3215 25.1014 61.0429 26.2239 60.0065 30.1079Z" fill="white"/>
<path fill-rule="evenodd" clip-rule="evenodd" d="M45.5276 57.2372C36.3707 57.0444 26.77 57.5815 17.2131 57.4111C13.6128 57.6125 9.6126 57.8362 6.05605 57.3301C4.45594 57.4196 2.4558 57.5315 0.943073 56.206C-0.125933 54.1505 0.492513 50.5904 1.73628 49.8157C2.98006 49.0411 4.09279 50.389 5.33656 49.6143C18.8501 50.2685 32.0946 48.8225 45.6081 49.4767C48.7647 50.0052 48.3278 57.0806 45.5276 57.2372Z" fill="white"/>
<path fill-rule="evenodd" clip-rule="evenodd" d="M45.1545 83.5662C38.454 88.8062 31.7965 93.349 24.7388 97.9143C22.2958 98.7463 15.4667 106.078 15.5383 98.4311C15.667 96.3395 16.5956 94.2029 17.7957 94.1355C19.8387 93.3259 21.9245 91.8191 24.0104 90.3124C30.668 85.7696 37.3256 81.2267 44.0261 75.9867C46.512 74.4575 48.0833 81.3172 45.1545 83.5662Z" fill="white"/>
</svg>
