<svg width="62" height="103" viewBox="0 0 62 103" fill="none" xmlns="http://www.w3.org/2000/svg">
<g id="Group 2921">
<path id="Vector" fill-rule="evenodd" clip-rule="evenodd" d="M1.99346 30.1079C3.94799 35.9563 7.915 29.165 10.2364 28.02C16.2823 22.6207 21.9282 17.1989 27.5741 11.7772C29.4561 9.9699 33.3382 8.27488 31.8624 3.72864C31.3443 1.78667 29.7048 1.05704 28.5835 2.26936C20.6556 9.47595 13.1671 17.3448 5.19983 23.9116C3.6785 25.1014 0.957132 26.2239 1.99346 30.1079Z" fill="white"/>
<path id="Vector_2" fill-rule="evenodd" clip-rule="evenodd" d="M16.4724 57.2372C25.6293 57.0444 35.23 57.5815 44.7869 57.4111C48.3872 57.6125 52.3874 57.8362 55.9439 57.3301C57.5441 57.4196 59.5442 57.5315 61.0569 56.206C62.1259 54.1505 61.5075 50.5904 60.2637 49.8157C59.0199 49.0411 57.9072 50.389 56.6634 49.6143C43.1499 50.2685 29.9054 48.8225 16.3919 49.4767C13.2353 50.0052 13.6722 57.0806 16.4724 57.2372Z" fill="white"/>
<path id="Vector_3" fill-rule="evenodd" clip-rule="evenodd" d="M16.8455 83.5662C23.546 88.8062 30.2035 93.349 37.2612 97.9143C39.7042 98.7463 46.5333 106.078 46.4617 98.4311C46.333 96.3395 45.4044 94.2029 44.2043 94.1355C42.1613 93.3259 40.0755 91.8191 37.9896 90.3124C31.332 85.7696 24.6744 81.2267 17.9739 75.9867C15.488 74.4575 13.9167 81.3172 16.8455 83.5662Z" fill="white"/>
</g>
</svg>
