<svg width="56" height="56" viewBox="0 0 56 56" fill="none" xmlns="http://www.w3.org/2000/svg">
<g id="contract 2" clip-path="url(#clip0_79_16)">
<g id="Group 771251" filter="url(#filter0_d_79_16)">
<path id="Vector" d="M28.5651 2.03613H3.84956C3.17206 2.03613 2.62305 2.59882 2.62305 3.2932V51.9419C2.62305 52.6363 3.17206 53.1986 3.84956 53.1986H39.45C40.1271 53.1986 40.6761 52.6359 40.6761 51.9419V14.4493C40.6761 13.6341 40.3604 12.8529 39.7984 12.2765L30.6847 2.93612C30.1223 2.35969 29.36 2.03613 28.5651 2.03613Z" fill="url(#paint0_linear_79_16)"/>
<path id="Vector_2" d="M30.4794 2.74472C30.4152 2.69019 30.349 2.63848 30.2808 2.59001C30.2753 2.58597 30.2693 2.58153 30.2634 2.57749C30.1937 2.52861 30.1223 2.48256 30.0494 2.44015C30.0459 2.43772 30.0423 2.4357 30.0388 2.43368C29.9631 2.39006 29.8855 2.34926 29.8066 2.3125V12.1263C29.8066 12.4781 29.9761 12.7887 30.2354 12.9794L40.6762 23.6802V14.4489C40.6762 13.6338 40.3605 12.8526 39.7985 12.2765L30.6847 2.93578C30.6241 2.87358 30.5606 2.815 30.4956 2.75886C30.4901 2.75401 30.4849 2.74916 30.4794 2.74472Z" fill="url(#paint1_linear_79_16)"/>
<path id="Vector_3" d="M29.8066 12.1263V2.3125C30.1302 2.46357 30.4282 2.67282 30.6847 2.93578L39.7981 12.2761C40.0543 12.5391 40.2588 12.8445 40.4062 13.1761H30.831C30.2654 13.1761 29.8066 12.7063 29.8066 12.1263Z" fill="url(#paint2_linear_79_16)"/>
<path id="Vector_4" d="M40.6761 27.6172V51.9418C40.6761 52.6361 40.1271 53.1984 39.45 53.1984H3.84956C3.17206 53.1984 2.62305 52.6357 2.62305 51.9418V27.6172H40.6761Z" fill="url(#paint3_linear_79_16)"/>
<g id="Group">
<path id="Vector_5" d="M7.80078 40.3574H17.1502V41.9146H7.80078V40.3574Z" fill="#C7D9E4"/>
<path id="Vector_6" d="M7.80078 34.9131H35.4974V36.4703H7.80078V34.9131Z" fill="#C7D9E4"/>
<path id="Vector_7" d="M7.80078 29.4678H35.4974V31.025H7.80078V29.4678Z" fill="#C7D9E4"/>
<path id="Vector_8" d="M7.80078 23.9551H35.4974V25.5123H7.80078V23.9551Z" fill="#C7D9E4"/>
<path id="Vector_9" d="M7.80078 18.5098H35.4974V20.067H7.80078V18.5098Z" fill="#C7D9E4"/>
<path id="Vector_10" d="M7.80078 13.0645H26.7097V14.6216H7.80078V13.0645Z" fill="#C7D9E4"/>
<path id="Vector_11" d="M7.80078 7.62012H26.7097V9.17731H7.80078V7.62012Z" fill="#C7D9E4"/>
<path id="Vector_12" d="M16.3132 49.5869C16.137 49.5869 15.9604 49.5247 15.817 49.3974C15.4993 49.1163 15.4642 48.6247 15.7385 48.2991C17.1928 46.5739 18.5309 45.0442 20.1807 43.7968C22.1415 42.3143 24.2374 41.5222 26.2423 41.506C26.3901 41.5048 26.7366 41.5024 27.0388 41.7585C27.3971 42.0619 27.4263 42.5026 27.4373 42.6686L27.5126 43.7972C27.5228 43.9515 27.6241 44.019 27.6832 44.0456C27.7427 44.0719 27.8598 44.1018 27.9769 44.0044C28.3414 43.7023 28.7947 43.3262 29.378 43.1557C29.9392 42.9917 30.5426 43.0713 30.9919 43.3694C31.3699 43.6199 31.6209 44.0101 31.7033 44.4734L33.9939 42.1693C34.2935 41.868 34.7743 41.8724 35.0683 42.1794C35.362 42.4864 35.3576 42.9792 35.0581 43.2806L32.6102 45.743C32.1211 46.2354 31.6016 46.3376 31.0668 46.0459C30.6096 45.7975 30.2892 45.3172 30.21 44.7618C30.2009 44.6996 30.184 44.6883 30.1674 44.6774C30.0996 44.6326 29.9463 44.6091 29.7946 44.6536C29.5096 44.7368 29.2164 44.9799 28.933 45.215C28.4072 45.6509 27.6958 45.7499 27.0763 45.4732C26.4563 45.1961 26.0425 44.5946 25.9968 43.9034L25.9416 43.0737C23.9469 43.186 22.2104 44.1975 21.0828 45.0502C19.5592 46.2023 18.2818 47.6645 16.8882 49.3175C16.738 49.4956 16.5264 49.5869 16.3132 49.5869Z" fill="#C7D9E4"/>
</g>
<path id="Vector_13" d="M2.62305 46.9375V51.9419C2.62305 52.6363 3.17206 53.1986 3.84956 53.1986H39.4496C40.1271 53.1986 40.6761 52.6363 40.6761 51.9419V46.9375H2.62305Z" fill="url(#paint4_linear_79_16)"/>
</g>
<g id="Pensil">
<path id="Vector_14" d="M50.9667 14.7569L48.6339 12.366C48.3148 12.039 48.2016 11.6243 48.3815 11.4398L51.8615 7.87315C52.0415 7.68872 52.4464 7.80445 52.7655 8.1315L55.0983 10.5224C55.4174 10.8494 55.5303 11.2645 55.3504 11.4489L51.8704 15.0156C51.6904 15.2 51.2858 15.0839 50.9667 14.7569Z" fill="#F22E2E"/>
<path id="Vector_15" d="M17.365 46.7256C17.0836 46.4373 17.0716 45.9821 17.3378 45.7093L18.6688 44.3452C18.9353 44.072 19.3794 44.0843 19.6607 44.3726C19.942 44.661 19.954 45.1161 19.6875 45.3893L18.3565 46.7534C18.0904 47.0262 17.6463 47.0139 17.365 46.7256Z" fill="#5B6870"/>
<path id="Vector_16" d="M21.423 45.8764L20.523 46.0051C19.1233 46.2048 17.8721 44.9224 18.0669 43.4878L18.1924 42.5654C18.2959 41.8033 18.6314 41.1069 19.1523 40.573L19.8486 39.8594L24.0633 44.179L23.367 44.8926C22.8461 45.4265 22.1666 45.7704 21.423 45.8764Z" fill="#F22E2E"/>
<path id="Vector_17" d="M23.6699 44.5818L19.4553 40.2622L48.8026 10.1838C49.0199 9.96104 49.3825 9.97107 49.6119 10.2062L52.9953 13.674C53.2248 13.9091 53.2346 14.2807 53.0172 14.5034L23.6699 44.5818Z" fill="url(#paint5_linear_79_16)"/>
<path id="Vector_18" d="M48.0557 11.7744L51.5445 15.3501L49.0655 17.8909L45.5767 14.3151L48.0557 11.7744Z" fill="#B2C4D0"/>
</g>
</g>
<defs>
<filter id="filter0_d_79_16" x="0.623047" y="0.0361328" width="42.0527" height="55.1621" filterUnits="userSpaceOnUse" color-interpolation-filters="sRGB">
<feFlood flood-opacity="0" result="BackgroundImageFix"/>
<feColorMatrix in="SourceAlpha" type="matrix" values="0 0 0 0 0 0 0 0 0 0 0 0 0 0 0 0 0 0 127 0" result="hardAlpha"/>
<feOffset/>
<feGaussianBlur stdDeviation="1"/>
<feComposite in2="hardAlpha" operator="out"/>
<feColorMatrix type="matrix" values="0 0 0 0 0.780392 0 0 0 0 0.85098 0 0 0 0 0.894118 0 0 0 1 0"/>
<feBlend mode="normal" in2="BackgroundImageFix" result="effect1_dropShadow_79_16"/>
<feBlend mode="normal" in="SourceGraphic" in2="effect1_dropShadow_79_16" result="shape"/>
</filter>
<linearGradient id="paint0_linear_79_16" x1="16.0854" y1="11.7861" x2="25.6288" y2="46.5487" gradientUnits="userSpaceOnUse">
<stop stop-color="#FFFCF8"/>
<stop offset="0.1875" stop-color="#FAF8F6"/>
<stop offset="0.4041" stop-color="#ECEEF2"/>
<stop offset="0.6353" stop-color="#D5DCEA"/>
<stop offset="0.875" stop-color="#B5C4DF"/>
<stop offset="1" stop-color="#A1B5D8"/>
</linearGradient>
<linearGradient id="paint1_linear_79_16" x1="38.1167" y1="18.7604" x2="29.2726" y2="2.01584" gradientUnits="userSpaceOnUse">
<stop stop-color="#A1B5D8" stop-opacity="0"/>
<stop offset="0.2632" stop-color="#8EA0BA" stop-opacity="0.262745"/>
<stop offset="0.5306" stop-color="#808FA3" stop-opacity="0.529412"/>
<stop offset="0.7822" stop-color="#778595" stop-opacity="0.780392"/>
<stop offset="1" stop-color="#748290"/>
</linearGradient>
<linearGradient id="paint2_linear_79_16" x1="31.1786" y1="11.9944" x2="37.6815" y2="5.29597" gradientUnits="userSpaceOnUse">
<stop stop-color="#FFFCF8"/>
<stop offset="0.1875" stop-color="#FAF8F6"/>
<stop offset="0.4041" stop-color="#ECEEF2"/>
<stop offset="0.6353" stop-color="#D5DCEA"/>
<stop offset="0.875" stop-color="#B5C4DF"/>
<stop offset="1" stop-color="#A1B5D8"/>
</linearGradient>
<linearGradient id="paint3_linear_79_16" x1="19.5679" y1="35.7518" x2="34.8887" y2="65.0322" gradientUnits="userSpaceOnUse">
<stop stop-color="#FFFCF8"/>
<stop offset="0.1875" stop-color="#FAF8F6"/>
<stop offset="0.4041" stop-color="#ECEEF2"/>
<stop offset="0.6353" stop-color="#D5DCEA"/>
<stop offset="0.875" stop-color="#B5C4DF"/>
<stop offset="1" stop-color="#A1B5D8"/>
</linearGradient>
<linearGradient id="paint4_linear_79_16" x1="21.6497" y1="50.9624" x2="21.6497" y2="55.2171" gradientUnits="userSpaceOnUse">
<stop stop-color="#A1B5D8" stop-opacity="0"/>
<stop offset="0.2632" stop-color="#8EA0BA" stop-opacity="0.262745"/>
<stop offset="0.5306" stop-color="#808FA3" stop-opacity="0.529412"/>
<stop offset="0.7822" stop-color="#778595" stop-opacity="0.780392"/>
<stop offset="1" stop-color="#748290"/>
</linearGradient>
<linearGradient id="paint5_linear_79_16" x1="34.3258" y1="25.0214" x2="38.5856" y2="29.1777" gradientUnits="userSpaceOnUse">
<stop stop-color="#FFD00D"/>
<stop offset="0.2378" stop-color="#FFCB0E"/>
<stop offset="0.5353" stop-color="#FFBB11"/>
<stop offset="0.8632" stop-color="#FFA215"/>
<stop offset="1" stop-color="#FF9517"/>
</linearGradient>
<clipPath id="clip0_79_16">
<rect width="56" height="56" fill="white"/>
</clipPath>
</defs>
</svg>
